/* XPM */
static char *flag_PRK[] = {
/* columns rows colors chars-per-pixel */
"24 12 28 1",
"  c #024FA2",
". c #ED1C27",
"X c #ED1D29",
"o c #ED1F2A",
"O c #ED1F2B",
"+ c #EE1D28",
"@ c #F0424B",
"# c #F0434C",
"$ c #F0444D",
"% c #F15860",
"& c #F15960",
"* c #F3676E",
"= c #F68E94",
"- c #F59095",
"; c #F69398",
": c #F69498",
"> c #F7969B",
", c #F7979C",
"< c #F7989D",
"1 c #F79BA0",
"2 c #F79CA1",
"3 c #F79DA2",
"4 c #F79EA3",
"5 c #F8A8AD",
"6 c #F8ABAF",
"7 c #FDEAEC",
"8 c #FDEBED",
"9 c #FEF8F8",
/* pixels */
"                        ",
"                        ",
"************************",
"......$>:@..............",
".....$9<<9$.............",
".....-&XO&=.............",
".....38XX8<.............",
".....#5>36@.............",
"......#33@..............",
"************************",
"                        ",
"                        "
};
