/* XPM */
static char *flag_SGP[] = {
/* columns rows colors chars-per-pixel */
"18 12 28 1",
"  c #ED2939",
". c #ED2A3A",
"X c #ED2C3B",
"o c #ED2E3D",
"O c #EE3140",
"+ c #EE3544",
"@ c #EE3D4B",
"# c #EF3D4C",
"$ c #EF4250",
"% c #EF4351",
"& c #EF4451",
"* c #EF4D5A",
"= c #F04856",
"- c #F04D5A",
"; c #F04E5B",
": c #F04F5C",
"> c #F15864",
", c #F15B68",
"< c #F15C68",
"1 c #F15D69",
"2 c #F26A75",
"3 c #F3707B",
"4 c #F3727D",
"5 c #F9B8BD",
"6 c #F9BABE",
"7 c #FAC3C8",
"8 c #FAC4C9",
"9 c gray100",
/* pixels */
"   :$             ",
"  63#<            ",
" <7>@o2           ",
" ,8X=$+           ",
"  64;*O           ",
"   ;$             ",
"999999999999999999",
"999999999999999999",
"999999999999999999",
"999999999999999999",
"999999999999999999",
"999999999999999999"
};
