/* XPM */
static char *flag_MHL[] = {
/* columns rows colors chars-per-pixel */
"23 12 103 2",
"   c #1D417F",
".  c #1E407F",
"X  c #25437A",
"o  c #2A4377",
"O  c #284378",
"+  c #334671",
"@  c #364871",
"#  c #3F4F75",
"$  c #7E5B3F",
"%  c #4F5B7C",
"&  c #7D5A40",
"*  c #003893",
"=  c #013993",
"-  c #023A94",
";  c #043B95",
":  c #053C95",
">  c #063D96",
",  c #173E83",
"<  c #1A3F82",
"1  c #0B4198",
"2  c #11459A",
"3  c #12469B",
"4  c #15489C",
"5  c #17499C",
"6  c #174A9D",
"7  c #194C9E",
"8  c #1B4D9E",
"9  c #2555A2",
"0  c #2656A4",
"q  c #2958A4",
"w  c #2A59A5",
"e  c #2C5AA6",
"r  c #3360A9",
"t  c #3965AB",
"y  c #3B66AC",
"u  c #426CAF",
"i  c #446DB0",
"p  c #4A72B2",
"a  c #4D74B4",
"s  c #587DB8",
"d  c #5B7FBA",
"f  c #7A7E8E",
"g  c #617CAD",
"h  c #5E81BB",
"j  c #6688BE",
"k  c #7A96C6",
"l  c #855C3B",
"z  c #875E39",
"x  c #8D5F36",
"c  c #906237",
"v  c #9B6735",
"b  c #AA6F32",
"n  c #AE753B",
"m  c #B07F4F",
"M  c #D57305",
"N  c #DB7403",
"B  c #DB7502",
"V  c #DB7602",
"C  c #D97404",
"Z  c #DD7500",
"A  c #DD7601",
"S  c #DC7602",
"D  c #D67D19",
"F  c #B29172",
"G  c #DC8018",
"H  c #DF8118",
"J  c #D4944D",
"K  c #E19642",
"L  c #E69942",
"P  c #E69A44",
"I  c #EBB376",
"U  c #EDB577",
"Y  c #809BC8",
"T  c #809CC9",
"R  c #91A9D0",
"E  c #95ACD2",
"W  c #96ADD2",
"Q  c #99AFD4",
"!  c #AABCDB",
"~  c #AABDDB",
"^  c #B3C4DF",
"/  c #BBCAE3",
"(  c #DEB281",
")  c #C9B7A8",
"_  c #F4D1AA",
"`  c #F6DABB",
"'  c #DEDCDD",
"]  c #C2CFE5",
"[  c #CCD7E9",
"{  c #D8E1EF",
"}  c #DDE4F1",
"|  c #DEE6F1",
" . c #FAECDB",
".. c #FBEDDE",
"X. c #EEF2F8",
"o. c #FBEFE1",
"O. c #F4F5F9",
"+. c #FBFCFD",
"@. c #FEFCFA",
"#. c #FEFDFB",
"$. c #FCFDFE",
"%. c #FEFEFE",
"&. c gray100",
/* pixels */
"* * * * - * * * * * * * * * * * * * * * * < $ ",
"* * * * 8 * * * * * * * * * * * * * * < $ M S ",
"* * 1 y s w : * * * * * * * * * * . z C S S L ",
"* * t ! | W e * * * * * * * *   l S S G U  .%.",
"* 7 s { %.] p 5 * * * * * X x S S P _ #.%.%.+.",
"* * 9 W / k 5 * * * * O c S G U ..%.%.X.! h 3 ",
"* * ; 0 u 5 ; * * o v S K _ #.%.| R i : * * * ",
"* * * * 3 * * + b D I o.%.[ T w * * * * * * * ",
"* * * * * @ n J ` O.^ j 5 * * * * * * * * * * ",
"* * * # m ( ' Q a : * * * * * * * * * * * * * ",
"* % F ) Y r * * * * * * * * * * * * * * * * * ",
"f g 3 * * * * * * * * * * * * * * * * * * * * "
};
