/* XPM */
static char *flag_ZMB[] = {
/* columns rows colors chars-per-pixel */
"18 12 25 1",
"  c black",
". c #081300",
"X c #072700",
"o c #123500",
"O c #556A05",
"+ c #6E5C07",
"@ c #7B4608",
"# c #198A00",
"$ c #1C8900",
"% c #278900",
"& c #3A8800",
"* c #4A8600",
"= c #4E8700",
"- c #A4330B",
"; c #A63E0B",
": c #DE2010",
"> c #EF7D00",
", c #858200",
"< c #848400",
"1 c #948100",
"2 c #988200",
"3 c #A18000",
"4 c #A58000",
"5 c #A88200",
"6 c #B38100",
/* pixels */
"##################",
"############<53,4=",
"#############*21&#",
"##############%$##",
"###########O;@Xo66",
"###########+:- .>>",
"###########+:- .>>",
"###########+:- .>>",
"###########+:- .>>",
"###########+:- .>>",
"###########+:- .>>",
"###########+:- .>>"
};
