/* XPM */
static char *flag_SMR[] = {
/* columns rows colors chars-per-pixel */
"16 12 41 1",
"  c #41655D",
". c #4C655A",
"X c #4C675E",
"o c #456D64",
"O c #636A4B",
"+ c #626A4C",
"@ c #777F50",
"# c #6E7963",
"$ c #788251",
"% c #4D8A9B",
"& c #4F8DA3",
"* c #5DB3DF",
"= c #5DB5E2",
"- c #5EB6E4",
"; c #8A7236",
": c #8B7236",
"> c #80764D",
", c #85794F",
"< c #A4873F",
"1 c #A5883F",
"2 c #808D7C",
"3 c #948E6F",
"4 c #9B9373",
"5 c #A1B4BD",
"6 c #A2B5BD",
"7 c #BCBFB7",
"8 c #93B3C4",
"9 c #98B8C9",
"0 c #97C3D9",
"q c #98C5DC",
"w c #AEC8D1",
"e c #B3CCD5",
"r c #CEBD99",
"t c #CFBE9A",
"y c #CFD3CD",
"u c #D8D2C0",
"i c #D9D3C1",
"p c #FDFCFB",
"a c #FEFCF8",
"s c #FEFDF9",
"d c gray100",
/* pixels */
"dddddddddddddddd",
"dddddddpaddddddd",
"ddddddprrpdddddd",
"ddddddu1<udddddd",
"dddddy4::37ddddd",
"ddddd2,89>#ddddd",
"-----o+weO -----",
"-----&.@$X%-----",
"-----*q650------",
"----------------",
"----------------",
"----------------"
};
