/* XPM */
static char *flag_CHE[] = {
/* columns rows colors chars-per-pixel */
"12 12 6 1",
"  c red",
". c #FF1818",
"X c #FF2020",
"o c #FF3C3C",
"O c #FFC0C0",
"+ c gray100",
/* pixels */
"            ",
"            ",
"    .OO.    ",
"    X++X    ",
"  .Xo++oX.  ",
"  O++++++O  ",
"  O++++++O  ",
"  .Xo++oX.  ",
"    X++X    ",
"    .OO.    ",
"            ",
"            "
};
