/* XPM */
static char *flag_BGR[] = {
/* columns rows colors chars-per-pixel */
"20 12 3 1",
"  c #00966E",
". c #D62612",
"X c gray100",
/* pixels */
"XXXXXXXXXXXXXXXXXXXX",
"XXXXXXXXXXXXXXXXXXXX",
"XXXXXXXXXXXXXXXXXXXX",
"XXXXXXXXXXXXXXXXXXXX",
"                    ",
"                    ",
"                    ",
"                    ",
"....................",
"....................",
"....................",
"...................."
};
