/* XPM */
static char *flag_MRT[] = {
/* columns rows colors chars-per-pixel */
"18 12 36 1",
"  c #006233",
". c #026333",
"X c #036333",
"o c #056332",
"O c #046432",
"+ c #0B6631",
"@ c #0D6730",
"# c #136A2F",
"$ c #14692F",
"% c #156A2E",
"& c #186B2E",
"* c #1A6C2E",
"= c #206F2D",
"- c #216E2C",
"; c #327529",
": c #337529",
"> c #397927",
", c #3B7827",
"< c #3F7A26",
"1 c #3A7928",
"2 c #518123",
"3 c #5A8321",
"4 c #588421",
"5 c #598521",
"6 c #5A8521",
"7 c #608720",
"8 c #618820",
"9 c #9D9F13",
"0 c #A09F13",
"q c #BEAB0D",
"w c #CDB10A",
"e c #CEB10A",
"r c #EABC04",
"t c #EABD04",
"y c #EEBD04",
"u c #EFBE04",
/* pixels */
"          .       ",
"      o    O      ",
"     &  1,  *     ",
"     : %rr% :     ",
"     4  43  4     ",
"     0@    +9     ",
"     ,q=  =q<     ",
"      8ueeu8      ",
"       %22%       ",
"                  ",
"                  ",
"                  "
};
