/* XPM */
static char *flag_AFG[] = {
/* columns rows colors chars-per-pixel */
"18 12 30 1",
"  c black",
". c #009900",
"X c #BF0000",
"o c #C00808",
"O c #C10B0B",
"+ c #C41111",
"@ c #C41313",
"# c #C41B1A",
"$ c #C41C1B",
"% c #C71E1E",
"& c #C62323",
"* c #C92626",
"= c #C92C2C",
"- c #CB3636",
"; c #CC3636",
": c #CE3636",
"> c #CC3A3A",
", c #CC3B3B",
"< c #CD3C3A",
"1 c #CD3D3B",
"2 c #CE3C3C",
"3 c #CF3E3E",
"4 c #D14848",
"5 c #D14949",
"6 c #D96666",
"7 c #DA6F6F",
"8 c #DA7070",
"9 c #E18484",
"0 c #E08684",
"q c #E18C89",
/* pixels */
"      XXXXXX......",
"      XXXXXX......",
"      XXXXXX......",
"      Xo=*@X......",
"      o%13&X......",
"      ;5885-......",
"      >30633......",
"      +53;5+......",
"      X$q0#X......",
"      XXXXXX......",
"      XXXXXX......",
"      XXXXXX......"
};
