/* XPM */
static char *flag_COD[] = {
/* columns rows colors chars-per-pixel */
"16 12 40 1",
"  c #007FFF",
". c #017FFE",
"X c #0280FD",
"o c #0681FA",
"O c #0983F7",
"+ c #0B83F5",
"@ c #0882F8",
"# c #1687EA",
"$ c #1B88E6",
"% c #288DDA",
"& c #3692CC",
"* c #218BE0",
"= c #4B9AB9",
"- c #509CB4",
"; c #6BA49B",
": c #7EA588",
"> c #7EA689",
", c #7CAA8B",
"< c #7FAC88",
"1 c #64A2A2",
"2 c #CE1021",
"3 c #D01721",
"4 c #D01821",
"5 c #D42B20",
"6 c #D52F20",
"7 c #DB4B1E",
"8 c #DB4C1E",
"9 c #DB521E",
"0 c #DD581E",
"q c #DE7120",
"w c #DE7121",
"e c #E17E20",
"r c #B1A555",
"t c #B1A957",
"y c #BAC051",
"u c #D39331",
"i c #D49831",
"p c #DDCC30",
"a c #F4D41B",
"s c #C9C643",
/* pixels */
"  o          *t9",
"  -%       @>e32",
"@,sy;     =u5227",
" $apO   %t0225u=",
" &1<# O>e323w>O ",
" X  X=i6227r*   ",
"   *t0225u=     ",
" O>e423w>@      ",
"=i6227r*        ",
"7225u=          ",
"23w>@           ",
"7r*             "
};
