/* XPM */
static char *flag_KIR[] = {
/* columns rows colors chars-per-pixel */
"24 12 94 2",
"   c #003F87",
".  c #245A98",
"X  c #255B98",
"o  c #255B99",
"O  c #275C99",
"+  c #285D9A",
"@  c #295E9A",
"#  c #2D629D",
"$  c #2E629D",
"%  c #2F639D",
"&  c #3668A0",
"*  c #3769A0",
"=  c #3869A1",
"-  c #396AA2",
";  c #3A6BA2",
":  c #406FA5",
">  c #4371A7",
",  c #4B77AA",
"<  c #4C78AB",
"1  c #507BAD",
"2  c #5680AF",
"3  c #5781B0",
"4  c #5C84B2",
"5  c #6188B5",
"6  c #648AB6",
"7  c #6C90BA",
"8  c #6F93BB",
"9  c #7698BF",
"0  c #7A9BC0",
"q  c #7B9CC1",
"w  c #7E9EC2",
"e  c #CE1126",
"r  c #CE1226",
"t  c #CE1326",
"y  c #D01826",
"u  c #D01A25",
"i  c #D01C25",
"p  c #D11D25",
"a  c #D42924",
"s  c #D52D23",
"d  c #D42E23",
"f  c #D73723",
"g  c #D64C1F",
"h  c #D5511F",
"j  c #D5521D",
"k  c #DA4121",
"l  c #DF5F20",
"z  c #DF8B17",
"x  c #DF8A18",
"c  c #E08A19",
"v  c #EA8A1C",
"b  c #ED911B",
"n  c #ECBA13",
"m  c #ECBB13",
"M  c #F4CB15",
"N  c #F4CC15",
"B  c #FCD116",
"V  c #83A2C5",
"C  c #84A2C5",
"Z  c #85A3C6",
"A  c #90ABCB",
"S  c #9BB4D0",
"D  c #9CB4D0",
"F  c #A0B7D2",
"G  c #A5BBD5",
"H  c #A6BCD5",
"J  c #ADC1D8",
"K  c #B1C4DA",
"L  c #B7C9DD",
"P  c #BACBDF",
"I  c #BBCCDF",
"U  c #BECEE0",
"Y  c #C299AD",
"T  c #C59EB0",
"R  c #CFAFBE",
"E  c #D5B8C6",
"W  c #D4D4B2",
"Q  c #DAC1CD",
"!  c #DBC2CD",
"~  c #C3D2E3",
"^  c #CCD9E7",
"/  c #D2DDEA",
"(  c #D3DEEA",
")  c #D4DFEB",
"_  c #D6E0EC",
"`  c #D7E1EC",
"'  c #D9E2ED",
"]  c #E0CBD5",
"[  c #E8D9E0",
"{  c #EADCE3",
"}  c #ECDFE5",
"|  c #E9E7D9",
" . c #E9E7DA",
".. c #EDE6E4",
/* pixels */
"e e e e e e e e e a u e i f d e e e e e e e e e ",
"e e e e e e e e e u l v b k e e e e e e e e e e ",
"e e e e e e e e e e e d u e e e e e e e e e e e ",
"e e e e e e e e e e g z x g e e e e e e e e e e ",
"e e e e e e e e e h n M N n h e e e e e e e e e ",
"e e e e e e e e e c N B B N z e e e e e e e e e ",
"{ E Y ! } [ R T ] ..| W W | ..] Y R [ ..Q Y E { ",
"% % 1 @ & @ - , . ; o > > o - o , * @ & @ 1 % % ",
"J ' ( ( H L ' _ ^ F ~ _ _ ~ D ^ ) ' L G ( ( _ J ",
"9 ; o < w 7 & @ 2 V 5 % % 5 V 2 O - 7 w , . > 9 ",
"6 D U A 4 8 H I C 2 q K K q 3 Z I H 8 4 A I D 6 ",
"                                                "
};
