/* XPM */
static char *flag_COM[] = {
/* columns rows colors chars-per-pixel */
"20 12 54 1",
"  c #507D31",
". c #547B32",
"X c #3A7D98",
"o c #3A78B1",
"O c #3A75C0",
"+ c #3A75C4",
"@ c #3D8E33",
"# c #3E8D33",
"$ c #3E8F34",
"% c #3F8F35",
"& c #3D8D38",
"* c #3D8B46",
"= c #3C875E",
"- c #3C817C",
"; c #449032",
": c #429138",
"> c #429139",
", c #46933D",
"< c #579530",
"1 c #779F2D",
"2 c #4D9744",
"3 c #4F9846",
"4 c #579D4E",
"5 c #589E4F",
"6 c #5A9F51",
"7 c #5CA053",
"8 c #61A358",
"9 c #61A359",
"0 c #64A55C",
"q c #65A55D",
"w c #A2372A",
"e c #B62728",
"r c #854F2D",
"t c #CA1427",
"y c #CE1126",
"u c #9EAA29",
"i c #C4B524",
"p c #E5BF21",
"a c #F9C41F",
"s c #FFC61E",
"d c #8CBB86",
"f c #8DBD87",
"g c #8EBC87",
"h c #8EBD88",
"j c #9BC596",
"k c #9CC697",
"l c #9DC698",
"z c #C4DDC1",
"x c #D3E5D1",
"c c #D4E6D1",
"v c #DDECDB",
"b c #F9FBF9",
"n c #FAFCFA",
"m c gray100",
/* pixels */
"1pssssssssssssssssss",
"@;uassssssssssssssss",
"@@@<isssssssssssssss",
"@,kd97vmmmmmmmmmmmmm",
"%cf33@%lbmmmmmmmmmmm",
"qn>55@@@4zmmmmmmmmmm",
"qn>66@@@ wyyyyyyyyyy",
"%xh22@@rtyyyyyyyyyyy",
"@,jf9.eyyyyyyyyyyyyy",
"@@@*X+++++++++++++++",
"@&-O++++++++++++++++",
"=o++++++++++++++++++"
};
