/* XPM */
static char *flag_MWI[] = {
/* columns rows colors chars-per-pixel */
"18 12 20 1",
"  c black",
". c #020000",
"X c #100202",
"o c #2B0308",
"O c #2A0409",
"+ c #2B0409",
"@ c #2F0308",
"# c #2C0409",
"$ c #2D0409",
"% c #2E0409",
"& c #370409",
"* c #37050A",
"= c #3E050B",
"- c #4A060D",
"; c #630812",
": c #640812",
"> c #339E35",
", c #900C1B",
"< c #BE1023",
"1 c #CE1126",
/* pixels */
"       X$$X       ",
"      *-$$-&      ",
"     +=:<<;=+     ",
"     &@,,,,@@     ",
"111111111111111111",
"111111111111111111",
"111111111111111111",
"111111111111111111",
">>>>>>>>>>>>>>>>>>",
">>>>>>>>>>>>>>>>>>",
">>>>>>>>>>>>>>>>>>",
">>>>>>>>>>>>>>>>>>"
};
