/* XPM */
static char *flag_CZE[] = {
/* columns rows colors chars-per-pixel */
"18 12 11 1",
"  c #11457E",
". c #224176",
"X c #53355D",
"o c #215187",
"O c #587CA4",
"+ c #95243B",
"@ c #D7141A",
"# c #C61822",
"$ c #A0B5CB",
"% c #E7ECF2",
"& c gray100",
/* pixels */
"O%&&&&&&&&&&&&&&&&",
" o$&&&&&&&&&&&&&&&",
"   O%&&&&&&&&&&&&&",
"    o$&&&&&&&&&&&&",
"      O%&&&&&&&&&&",
"       o$&&&&&&&&&",
"       .+@@@@@@@@@",
"      X#@@@@@@@@@@",
"    .+@@@@@@@@@@@@",
"   X#@@@@@@@@@@@@@",
" .+@@@@@@@@@@@@@@@",
"X#@@@@@@@@@@@@@@@@"
};
