/* XPM */
static char *flag_KEN[] = {
/* columns rows colors chars-per-pixel */
"18 12 30 1",
"  c black",
". c gray1",
"X c #3D0F0F",
"o c #3E0F0F",
"O c gray16",
"+ c gray21",
"@ c #006600",
"# c #066806",
"$ c #156B15",
"% c #3C570F",
"& c #3D560F",
"* c #440000",
"= c #656565",
"- c #778E67",
"; c #788D67",
": c #65A365",
"> c #9A1B1B",
", c #BB0000",
"< c #837373",
"1 c #847373",
"2 c #C42424",
"3 c #C42525",
"4 c #C52626",
"5 c #C83232",
"6 c #CB3B3B",
"7 c #CB3C3C",
"8 c #C74141",
"9 c #C84141",
"0 c #C84341",
"q c #C84442",
/* pixels */
"                  ",
"           .      ",
"      O+oo+O      ",
"=======1991=======",
"5555555>77>5555555",
",,,,,,,*33*,,,,,,,",
",,,,,,,*33*,,,,,,,",
"5555555>77>5555555",
":::::::;qq-:::::::",
"@@@@@@#$%%$#@@@@@@",
"@@@@@@@@@@@@@@@@@@",
"@@@@@@@@@@@@@@@@@@"
};
