/* XPM */
static char *flag_DJI[] = {
/* columns rows colors chars-per-pixel */
"18 12 42 1",
"  c #12AD2B",
". c #15AE2D",
"X c #1EB136",
"o c #21B238",
"O c #31B846",
"+ c #36BA4B",
"@ c #54C466",
"# c #6AB2E7",
"$ c #6CB3E7",
"% c #72B6E8",
"& c #76B8E9",
"* c #7EBCEA",
"= c #79D187",
"- c #E15155",
"; c #E3595D",
": c #83BFEB",
"> c #99DCA4",
", c #93C7EE",
"< c #ABD4F1",
"1 c #BFDEF5",
"2 c #B8E7C0",
"3 c #BAE7C1",
"4 c #EA8386",
"5 c #EB8A8D",
"6 c #D9F2DD",
"7 c #C3E0F5",
"8 c #D3E8F8",
"9 c #D7EAF9",
"0 c #E7F3FB",
"q c #EEF9F0",
"w c #FAE1E1",
"e c #FAE4E5",
"r c #FBE8E9",
"t c #F4FAFD",
"y c #FDF3F3",
"u c #F9FDFA",
"i c #FAFDFB",
"p c #FBFDFE",
"a c #FEF8F8",
"s c #FCFDFF",
"d c #FFFEFE",
"f c gray100",
/* pixels */
"9:################",
"ff7&##############",
"ffft<#############",
"fffff0,###########",
"fffyaff8*#########",
"ffe45rffp1%#######",
"fff-;fffu>X       ",
"fffwwff2O         ",
"fffff6@           ",
"fffq=.            ",
"fu>o              ",
"3+                "
};
