/* XPM */
static char *flag_GUY[] = {
/* columns rows colors chars-per-pixel */
"20 12 39 1",
"  c #481A0A",
". c #5F0B12",
"X c #563A09",
"o c #4E412F",
"O c #4F4130",
"+ c #7F670B",
"@ c #7F6D26",
"# c #009E49",
"$ c #04A04C",
"% c #06A04D",
"& c #11A455",
"* c #2BAE68",
"= c #40B677",
"- c #44B87A",
"; c #7FB78F",
": c #5EC28C",
"> c #79CB9C",
", c #830B18",
"< c #A60E1F",
"1 c #C01023",
"2 c #CD1126",
"3 c #CE1126",
"4 c #B0920F",
"5 c #DAB513",
"6 c #F4CA15",
"7 c #FCD116",
"8 c #FCD21A",
"9 c #FCD427",
"0 c #FCD735",
"q c #FDDC4C",
"w c #FDE064",
"e c #FCE57A",
"r c #83B992",
"t c #97D4A7",
"y c #B7DDA7",
"u c #D3E3A2",
"i c #EDE088",
"p c #E9E69A",
"a c #F5E78C",
/* pixels */
"Or-%################",
"1.@iy:&#############",
"22< 40eu>*##########",
"2222,X579wpt-%######",
"333331.+6778qay:&###",
"3333333< 4777770eu>*",
"3333333< 4777770eu>*",
"333331.+6778qay:&###",
"3222,X579wpt-%######",
"32< 40eu>*##########",
"1.@iy:&#############",
"or=%################"
};
