/* XPM */
static char *flag_SWZ[] = {
/* columns rows colors chars-per-pixel */
"18 12 63 1",
"  c #010101",
". c #040404",
"X c #383D57",
"o c #443735",
"O c #443935",
"+ c #563E3E",
"@ c #58443E",
"# c gray27",
"$ c gray28",
"% c #494949",
"& c #444852",
"* c #474957",
"= c #6B4343",
"- c #717171",
"; c #394983",
": c #3E5EB9",
"> c #4A5696",
", c #54518A",
"< c #8D243A",
"1 c #932135",
"2 c #94383B",
"3 c #993232",
"4 c #AD0F11",
"5 c #AC0F13",
"6 c #AF1212",
"7 c #AB1A18",
"8 c #B10C0C",
"9 c #B2100D",
"0 c #B3100C",
"q c #B5160B",
"w c #B4150C",
"e c #B51717",
"r c #BA270B",
"t c #BB290D",
"y c #B72D13",
"u c #BE3015",
"i c #BD3910",
"p c #A53024",
"a c #B82121",
"s c #BE4412",
"d c #8B5252",
"f c #8C5959",
"g c #C1350A",
"h c #C1360A",
"j c #C43E09",
"k c #C43F16",
"l c #CC5D2D",
"z c #C7503E",
"x c #C54949",
"c c #C54B4B",
"v c #CE6043",
"b c #CFBA2E",
"n c #848484",
"m c #AFAFAF",
"M c #B6B6B6",
"N c #DA8B8B",
"B c #E7B3B3",
"V c #ECC1B4",
"C c gray81",
"Z c #EFCDC6",
"A c #F2D3C7",
"S c #F3F3F3",
"D c gray100",
/* pixels */
"::::::::::::::::::",
"::::::::::::::::::",
"bbbbbbbbbbbbbbbbbb",
"88888883dNc8888888",
"888qgi@;XSDVkgza88",
"80rjsO%*&-mMAlvtq8",
"80,2yo%$$nmMZup>78",
"881586+  CDBe85<88",
"88888883=fc8888888",
"bbbbbbbbbbbbbbbbbb",
"::::::::::::::::::",
"::::::::::::::::::"
};
