/* XPM */
static char *flag_HRV[] = {
/* columns rows colors chars-per-pixel */
"24 12 36 1",
"  c #5B6B7E",
". c #171796",
"X c #1F1993",
"o c #5D7E8F",
"O c #657CAB",
"+ c red",
"@ c #F71014",
"# c #F21B1F",
"$ c #FF5B5B",
"% c #FF6161",
"& c #FF7474",
"* c #FF7979",
"= c #834E8E",
"- c #916A8C",
"; c #996D8C",
": c #8975A5",
"> c #B87F90",
", c #C16385",
"< c #C16485",
"1 c #808A9B",
"2 c #818D9B",
"3 c #95849E",
"4 c #A1829D",
"5 c #FF8C8C",
"6 c #FF9191",
"7 c #FF9393",
"8 c #FF9E9E",
"9 c #FF9F9F",
"0 c #FFA0A0",
"q c #FFABAB",
"w c #FFAEAE",
"e c #FFBFBF",
"r c #FFC0C0",
"t c #FFDADA",
"y c #FFDBDB",
"u c gray100",
/* pixels */
"++++++++++++++++++++++++",
"++++++++++@##@++++++++++",
"+++++++++2=o O1+++++++++",
"+++++++++4:;-3>+++++++++",
"uuuuuuuuu9%77%0uuuuuuuuu",
"uuuuuuuuueq&*qruuuuuuuuu",
"uuuuuuuuu9$77$9uuuuuuuuu",
"uuuuuuuuuyw&&wyuuuuuuuuu",
"..........,55,..........",
"...........XX...........",
"........................",
"........................"
};
