/* XPM */
static char *flag_BDI[] = {
/* columns rows colors chars-per-pixel */
"20 12 58 1",
"  c #1EB53A",
". c #22B63D",
"X c #23B73F",
"o c #33BC4D",
"O c #37BD50",
"+ c #54C769",
"@ c #5AC96F",
"# c #63CB76",
"$ c #64CC77",
"% c #66CC78",
"& c #B9252B",
"* c #B9262B",
"= c #A44736",
"- c #A34836",
"; c #986B4F",
": c #996B4F",
"> c #CE1126",
", c #CF1529",
"< c #D12034",
"1 c #D12134",
"2 c #D12235",
"3 c #D3273A",
"4 c #D32B3E",
"5 c #DA4A5A",
"6 c #DB5060",
"7 c #DD5867",
"8 c #E37984",
"9 c #80D590",
"0 c #8FDA9D",
"q c #ADE4B7",
"w c #BCE9C4",
"e c #EA9DA5",
"r c #EB9DA5",
"t c #EDA8B0",
"y c #EEA9B1",
"u c #F0B8BE",
"i c #C3CFB6",
"p c #C4D0B6",
"a c #D8F3DD",
"s c #DBF4DF",
"d c #DBF4E0",
"f c #DDF3E1",
"g c #DFF4E3",
"h c #F6D7DA",
"j c #F7DBDE",
"k c #FBECED",
"l c #FBEDEE",
"z c #FBEEEF",
"x c #F0F6EE",
"c c #F4F9F2",
"v c #F4FBF5",
"b c #F6FCF7",
"n c #F7FCF7",
"m c #F7FCF8",
"M c #FBF4F4",
"N c #FCF7F7",
"B c #FEFEFE",
"V c gray100",
/* pixels */
"BM8,>>>>>>>>>>>>,8NB",
"+aBj6>>>>>>>>>>5hBf@",
" .9vBu4>2772>3tBb0X ",
"   oqBNyzipzrMBwO   ",
"     +dBB==BBg@     ",
"      %BBBBBB$      ",
"      $x*mn*x#      ",
"     +sc:mm:cg@     ",
"   oqBNtzBBzrNBwo   ",
" .9bBu4>2772>3tBb0X ",
"+sBj5>>>>>>>>>>5hBd@",
"BM8,>>>>>>>>>>>>,8MB"
};
