/* XPM */
static char *flag_GTM[] = {
/* columns rows colors chars-per-pixel */
"19 12 21 1",
"  c #4997D0",
". c #B9BC9F",
"X c #B7BFA0",
"o c #D8BE86",
"O c #C1C2A4",
"+ c #CEC8B3",
"@ c #C9D2AC",
"# c #EED28F",
"$ c #CFDBC4",
"% c #D3DBCB",
"& c #D3DFC8",
"* c #C3DDF0",
"= c #DDE3D6",
"- c #DCE4D7",
"; c #DDE9DB",
": c #E2E1CC",
"> c #EEEDDE",
", c #E7ECE4",
"< c #F2F5EF",
"1 c #F3F6F1",
"2 c gray100",
/* pixels */
"      *22222*      ",
"      *22222*      ",
"      *22222*      ",
"      *22222*      ",
"      *<:@,1*      ",
"      *$>#&%*      ",
"      *=+oX-*      ",
"      *2O;.2*      ",
"      *22222*      ",
"      *22222*      ",
"      *22222*      ",
"      *22222*      "
};
