/* XPM */
static char *flag_TGO[] = {
/* columns rows colors chars-per-pixel */
"19 12 26 1",
"  c #006A4E",
". c #0A664C",
"X c #D21034",
"o c #D62748",
"O c #D62848",
"+ c #D82C4B",
"@ c #D8304F",
"# c #D83150",
"$ c #D93352",
"% c #D93452",
"& c #DC435F",
"* c #9D9F20",
"= c #9AA61F",
"- c #CE9916",
"; c #CDBA0F",
": c #CDBB0F",
"> c #CDB310",
", c #FDC502",
"< c #FFCE00",
"1 c #EDA3B1",
"2 c #F0ADB9",
"3 c #F7D8DF",
"4 c #F9DADF",
"5 c #F8DBE1",
"6 c #F9E4E7",
"7 c gray100",
/* pixels */
"XXXXXXX.           ",
"XXX&XXX.           ",
"Xo@4$oX*===========",
"X+576$X,<<<<<<<<<<<",
"XX132XX>::::;;;::::",
"XX%X$XX.           ",
"XXXXXXX.           ",
"-------;:::::::::::",
"<<<<<<<<<<<<<<<<<<<",
"===================",
"                   ",
"                   "
};
