/* XPM */
static char *flag_CRI[] = {
/* columns rows colors chars-per-pixel */
"20 12 3 1",
"  c #002B7F",
". c #CE1126",
"X c gray100",
/* pixels */
"                    ",
"                    ",
"XXXXXXXXXXXXXXXXXXXX",
"XXXXXXXXXXXXXXXXXXXX",
"....................",
"....................",
"....................",
"....................",
"XXXXXXXXXXXXXXXXXXXX",
"XXXXXXXXXXXXXXXXXXXX",
"                    ",
"                    "
};
