/* XPM */
static char *flag_MDA[] = {
/* columns rows colors chars-per-pixel */
"24 12 42 1",
"  c #5F4113",
". c #5D5F3C",
"X c #775C1E",
"o c #7F5510",
"O c #785A28",
"+ c #7F6E13",
"@ c #68613A",
"# c #786435",
"$ c #415159",
"% c #0046AE",
"& c #855B1E",
"* c #885F19",
"= c #855727",
"- c #975B27",
"; c #816719",
": c #8C6F17",
"> c #8C7712",
", c #95741A",
"< c #866A2A",
"1 c #877035",
"2 c #906433",
"3 c #9A6332",
"4 c #AC4316",
"5 c #B34119",
"6 c #CC092F",
"7 c #A98715",
"8 c #B08F07",
"9 c #B28F0B",
"0 c #B8950C",
"q c #BD9A07",
"w c #C19A07",
"e c #CAA406",
"r c #CDA606",
"t c #D8B005",
"y c #E9C002",
"u c #EAC000",
"i c #EDC203",
"p c #F5C900",
"a c #F7CC00",
"s c #FDD000",
"d c #FED100",
"f c #FFD200",
/* pixels */
"%%%%%%%%ffffffff66666666",
"%%%%%%%%ffffffff66666666",
"%%%%%%%%fffwifff66666666",
"%%%%%%%%ft:,7;yf66666666",
"%%%%%%%%f9-45=ef66666666",
"%%%%%%%%f+3*&28f66666666",
"%%%%%%%%f>@.$#qf66666666",
"%%%%%%%%f0 1<orf66666666",
"%%%%%%%%ffyOXpff66666666",
"%%%%%%%%fffaffff66666666",
"%%%%%%%%ffffffff66666666",
"%%%%%%%%ffffffff66666666"
};
