/* XPM */
static char *flag_LUX[] = {
/* columns rows colors chars-per-pixel */
"20 12 3 1",
"  c #00A1DE",
". c #ED2939",
"X c gray100",
/* pixels */
"....................",
"....................",
"....................",
"....................",
"XXXXXXXXXXXXXXXXXXXX",
"XXXXXXXXXXXXXXXXXXXX",
"XXXXXXXXXXXXXXXXXXXX",
"XXXXXXXXXXXXXXXXXXXX",
"                    ",
"                    ",
"                    ",
"                    "
};
