/* XPM */
static char *flag_MDV[] = {
/* columns rows colors chars-per-pixel */
"18 12 13 1",
"  c #007E3A",
". c #098340",
"X c #0A8341",
"o c #0B8343",
"O c #0B8443",
"+ c #249056",
"@ c #259157",
"# c #4DA475",
"$ c #4FA577",
"% c #78BA97",
"& c #79BB98",
"* c #D21034",
"= c #9BCCB2",
/* pixels */
"******************",
"******************",
"******************",
"***            ***",
"***     &#XX   ***",
"***    +=      ***",
"***    +=      ***",
"***     &#XO   ***",
"***            ***",
"******************",
"******************",
"******************"
};
