/* XPM */
static char *flag_WSM[] = {
/* columns rows colors chars-per-pixel */
"24 12 14 1",
"  c #002B7F",
". c #052F82",
"X c #083283",
"o c #123A88",
"O c #1C428D",
"+ c #20468F",
"@ c #224790",
"# c #274B93",
"$ c #2B4F95",
"% c #325598",
"& c #37599B",
"* c #3C5D9D",
"= c #5E79AE",
"- c #CE1126",
/* pixels */
"     $$     ------------",
"    .OOOX   ------------",
"   @=  *+   ------------",
"      #o    ------------",
"     %%     ------------",
"     &&     ------------",
"------------------------",
"------------------------",
"------------------------",
"------------------------",
"------------------------",
"------------------------"
};
