/* XPM */
static char *flag_TUR[] = {
/* columns rows colors chars-per-pixel */
"18 12 24 1",
"  c #E30A17",
". c #E30C19",
"X c #E30D1A",
"o c #E6222C",
"O c #E62631",
"+ c #E62934",
"@ c #E62A35",
"# c #E72D38",
"$ c #E83641",
"% c #EB4F59",
"& c #EC5B63",
"* c #EC5D65",
"= c #F07F86",
"- c #F18288",
"; c #F28A90",
": c #F28C92",
"> c #F7B4B7",
", c #F7B5B9",
"< c #F7B6B9",
"1 c #FAD0D2",
"2 c #FAD1D3",
"3 c #FAD4D6",
"4 c #FAD5D7",
"5 c #FEF9FA",
/* pixels */
"                  ",
"                  ",
"                  ",
"    %2>-#         ",
"   $5&  +o.       ",
"   :3   .=,O      ",
"   ;3   .-,O      ",
"   $5*  +o.       ",
"    %2,-#         ",
"                  ",
"                  ",
"                  "
};
