/* XPM */
static char *flag_MCO[] = {
/* columns rows colors chars-per-pixel */
"15 12 2 1",
"  c #CE1126",
". c gray100",
/* pixels */
"               ",
"               ",
"               ",
"               ",
"               ",
"               ",
"...............",
"...............",
"...............",
"...............",
"...............",
"..............."
};
