/* XPM */
static char *flag_ECU[] = {
/* columns rows colors chars-per-pixel */
"18 12 32 1",
"  c #495D78",
". c #40607D",
"X c #7F6A63",
"o c #034EA2",
"O c #044EA2",
"+ c #0650A3",
"@ c #1458A0",
"# c #7B8372",
"$ c #7C8172",
"% c #5B9692",
"& c #6EA490",
"* c #806B63",
"= c #ED1C24",
"- c #9D812D",
"; c #AD941A",
": c #B4991A",
"> c #A88A3C",
", c #A9AB36",
"< c #BCB035",
"1 c #89954F",
"2 c #8F9A59",
"3 c #A1A647",
"4 c #B9B740",
"5 c #C9BE1C",
"6 c #C9BE1E",
"7 c #F7D506",
"8 c #FCD800",
"9 c #FCD801",
"0 c #FFDD00",
"q c #F7DA16",
"w c #8CB4B1",
"e c #A5BEB9",
/* pixels */
"000000000000000000",
"000000000000000000",
"000000000000000000",
"0000008;>-:8000000",
"000000q63<6q000000",
"0000007<ew,7000008",
"ooooooo*%&XoooooOO",
"ooooooO2##1OooooOO",
"OOOOO++@ @@@++++OO",
"==================",
"==================",
"=================="
};
