/* XPM */
static char *flag_CMR[] = {
/* columns rows colors chars-per-pixel */
"18 12 11 1",
"  c #007A5E",
". c #CE1126",
"X c #D11C26",
"o c #D11D26",
"O c #D22125",
"+ c #D22225",
"@ c #D42924",
"# c #F4AF19",
"$ c #F5B118",
"% c #F6B118",
"& c #FCD116",
/* pixels */
"      ......&&&&&&",
"      ......&&&&&&",
"      ......&&&&&&",
"      ......&&&&&&",
"      ..++..&&&&&&",
"      .@##@.&&&&&&",
"      ..$$..&&&&&&",
"      ..oo..&&&&&&",
"      ......&&&&&&",
"      ......&&&&&&",
"      ......&&&&&&",
"      ......&&&&&&"
};
