/* XPM */
static char *flag_VNM[] = {
/* columns rows colors chars-per-pixel */
"18 12 22 1",
"  c #DA251D",
". c #DA271D",
"X c #DC2B1D",
"o c #DC2E1C",
"O c #DC301B",
"+ c #DE381B",
"@ c #DE3C1A",
"# c #E14F17",
"$ c #E04918",
"% c #EE9F0D",
"& c #EFA00D",
"* c #F1AD0B",
"= c #F5C309",
"- c #F5C509",
"; c #F6CC07",
": c #F7D206",
"> c #FAE104",
", c #FBE703",
"< c #FBE803",
"1 c #FBEC03",
"2 c #FCEE02",
"3 c yellow",
/* pixels */
"                  ",
"                  ",
"        @@        ",
"        &%        ",
"     +#$<,$#+     ",
"     o;3333:O     ",
"       =33-       ",
"       >21>       ",
"      X* .*o      ",
"                  ",
"                  ",
"                  "
};
