/* XPM */
static char *flag_ITA[] = {
/* columns rows colors chars-per-pixel */
"18 12 3 1",
"  c #009246",
". c #CE2B37",
"X c gray100",
/* pixels */
"      XXXXXX......",
"      XXXXXX......",
"      XXXXXX......",
"      XXXXXX......",
"      XXXXXX......",
"      XXXXXX......",
"      XXXXXX......",
"      XXXXXX......",
"      XXXXXX......",
"      XXXXXX......",
"      XXXXXX......",
"      XXXXXX......"
};
