/* XPM */
static char *flag_KAZ[] = {
/* columns rows colors chars-per-pixel */
"24 12 61 1",
"  c #6FB977",
". c #7AB96F",
"X c #7ABA6F",
"o c #7EBA6C",
"O c #10B0BE",
"+ c #12B1BD",
"@ c #13B1BC",
"# c #15B1BB",
"$ c #16B1BA",
"% c #1EB1B3",
"& c #1CB1B5",
"* c #3BB39C",
"= c #3BB59E",
"- c #24B1AF",
"; c #24B2AF",
": c #25B3AF",
"> c #27B2AD",
", c #28B3AC",
"< c #2CB3A9",
"1 c #21B1B2",
"2 c #20B2B3",
"3 c #23B2B0",
"4 c #31B3A5",
"5 c #32B3A5",
"6 c #30B4A6",
"7 c #36B6A2",
"8 c #07AFC4",
"9 c #01AFC9",
"0 c #00AFCA",
"q c #03AFC8",
"w c #08AFC3",
"e c #0BAFC2",
"r c #05B0C6",
"t c #09B0C3",
"y c #0AB0C2",
"u c #08B0C4",
"i c #0CB0C1",
"p c #0EB0C0",
"a c #46B495",
"s c #47B595",
"d c #47B497",
"f c #40B49A",
"g c #42B599",
"h c #42B698",
"j c #4CB590",
"k c #4EB590",
"l c #53B68C",
"z c #5BB786",
"x c #58B788",
"c c #91BB5D",
"v c #91BC5D",
"b c #85BB66",
"n c #87BB65",
"m c #86BC66",
"M c #81BA69",
"N c #80BA6C",
"B c #80BC6B",
"V c #8ABC62",
"C c #8ABD63",
"Z c #8CBB62",
"A c #FEC50C",
/* pixels */
"y>qq00000000000000000000",
"3Z8q00000000000000000000",
"&orq00000000&#0000000000",
">XOq000000qfbNf000000000",
"&.Oq000099&CAAB#00000000",
">nrq0000967vAAm5,0000000",
"3nrq00009 ldvCfMxq000000",
"3XOq00009ia6ak=k80000000",
"3XO0000090rr=<zi00000000",
"&ou000000000O3qq00000000",
"3Z80000000000000000q0000",
"y,q0000000000000000q0000"
};
