/* XPM */
static char *flag_LSO[] = {
/* columns rows colors chars-per-pixel */
"18 12 21 1",
"  c gray9",
". c #1E1E1E",
"X c #2D2D2D",
"o c gray18",
"O c #626262",
"+ c #00209F",
"@ c #6173BC",
"# c #6174BD",
"$ c #6578C5",
"% c #009543",
"& c #59A77C",
"* c #5AA87D",
"= c #66BE8D",
"- c #66BF8E",
"; c #848484",
": c gray53",
"> c gray62",
", c #A2A2A2",
"< c gray90",
"1 c gray93",
"2 c gray100",
/* pixels */
"++++++++++++++++++",
"++++++++++++++++++",
"++++++++++++++++++",
"$$$$$$$$@#$$$$$$$$",
"22222222>,22222222",
"22222222;;22222222",
"22222221. <2222222",
"2222222OooO2222222",
"--------**--------",
"%%%%%%%%%%%%%%%%%%",
"%%%%%%%%%%%%%%%%%%",
"%%%%%%%%%%%%%%%%%%"
};
