/* XPM */
static char *flag_SYC[] = {
/* columns rows colors chars-per-pixel */
"24 12 28 1",
"  c #007A3D",
". c #557376",
"X c #003F87",
"o c #144B83",
"O c #198750",
"+ c #449D71",
"@ c #6EB391",
"# c #D62828",
"$ c #D82F2A",
"% c #DC4730",
"& c #E56E3A",
"* c #DD4C4C",
"= c #A38E73",
"- c #A8A566",
"; c #EE9846",
": c #E1B154",
"> c #F6BC4F",
", c #E6CA5B",
"< c #FBD154",
"1 c #FCD856",
"2 c #95B59C",
"3 c #B49080",
"4 c #99CAB1",
"5 c #EB9494",
"6 c #C3E0D1",
"7 c #F8DCDC",
"8 c #EEF6F2",
"9 c gray100",
/* pixels */
"XXXXXXX.111111<&########",
"XXXXXXo,11111>%#########",
"XXXXXX-11111;$##########",
"XXXXX.1111<&############",
"XXXXo,111>%##########*57",
"XXXX-111;$########*57999",
"XXX.11<&#######*57999999",
"XXo,1>%#####*57999999999",
"XX-1;$###*57999999864@+O",
"X.<&##*57999864@+O      ",
"o:%*57864@+O            ",
"=32@+O                  "
};
