/* XPM */
static char *flag_LBY[] = {
/* columns rows colors chars-per-pixel */
"24 12 15 1",
"  c black",
". c #010101",
"X c #020202",
"o c gray1",
"O c #282828",
"+ c gray16",
"@ c #3E3E3E",
"# c gray27",
"$ c #464646",
"% c gray33",
"& c #555555",
"* c gray36",
"= c #239E46",
"- c #E70013",
"; c #8D8D8D",
/* pixels */
"------------------------",
"------------------------",
"------------------------",
"                        ",
"           &$           ",
"          *+ ;@         ",
"          *+o;@         ",
"           &$           ",
"                        ",
"========================",
"========================",
"========================"
};
