/* XPM */
static char *flag_ISR[] = {
/* columns rows colors chars-per-pixel */
"17 12 12 1",
"  c #0038B8",
". c #1F50C1",
"X c #436DCA",
"o c #5D80D2",
"O c #5D81D2",
"+ c #8DA6DF",
"@ c #A8BBE7",
"# c #A9BCE7",
"$ c #C0CEED",
"% c #C9D5F0",
"& c #DDE4F6",
"* c gray100",
/* pixels */
"*****************",
".................",
"                 ",
"********%********",
"******$+X+$******",
"******#o&o@******",
"******#o&o@******",
"******$+X+$******",
"********%********",
"                 ",
".................",
"*****************"
};
