/* XPM */
static char *flag_MNE[] = {
/* columns rows colors chars-per-pixel */
"24 12 43 1",
"  c #BD5525",
". c #B8612A",
"X c #8C7B4E",
"o c #847955",
"O c #C30508",
"+ c #C40308",
"@ c #C40508",
"# c #C40509",
"$ c #C3090A",
"% c #C3180E",
"& c #C41B0E",
"* c #C42311",
"= c #C42411",
"- c #C42511",
"; c #C03519",
": c #C13419",
"> c #C43218",
", c #C33A19",
"< c #C43D1A",
"1 c #C53D1A",
"2 c #C4441A",
"3 c #C4451D",
"4 c #C4551F",
"5 c #C45421",
"6 c #C16422",
"7 c #C16522",
"8 c #C36527",
"9 c #C36728",
"0 c #CD6926",
"q c #C57528",
"w c #C7772B",
"e c #C5792B",
"r c #C77E2E",
"t c #AF8F35",
"y c #AF9035",
"u c #9B8047",
"i c #9C8048",
"p c #CA802D",
"a c #C88530",
"s c #C88531",
"d c #C98B31",
"f c #C99233",
"g c #D19333",
/* pixels */
"g0000000000000000000000g",
"0++++++++++++++++++++++0",
"0++++++++++::++++++++++0",
"0+++++++O1%77%1O+++++++0",
"0+++++++%a3ww3a&+++++++0",
"0+++++++-dpuopd=+++++++0",
"0+++++++-efXufw++++++++0",
"0++++++++>8yt8.++++++++0",
"0++++++++52rr, O+++++++0",
"0++++++++$O44++++++++++0",
"0++++++++++++++++++++++0",
"g0000000000000000000000g"
};
