/* XPM */
static char *flag_FIN[] = {
/* columns rows colors chars-per-pixel */
"20 12 7 1",
"  c #003580",
". c #0A3C84",
"X c #1B4A8D",
"o c #335E99",
"O c #5C7EAE",
"+ c #8DA5C6",
"@ c gray100",
/* pixels */
"@@@@@+  X@@@@@@@@@@@",
"@@@@@+  X@@@@@@@@@@@",
"@@@@@+  X@@@@@@@@@@@",
"@@@@@+  X@@@@@@@@@@@",
"OOOOOo  .OOOOOOOOOOO",
"                    ",
"                    ",
"OOOOOo  .OOOOOOOOOOO",
"@@@@@+  X@@@@@@@@@@@",
"@@@@@+  X@@@@@@@@@@@",
"@@@@@+  X@@@@@@@@@@@",
"@@@@@+  X@@@@@@@@@@@"
};
