/* XPM */
static char *flag_LAO[] = {
/* columns rows colors chars-per-pixel */
"18 12 11 1",
"  c #002868",
". c #052C6B",
"X c #062D6C",
"o c #4B6794",
"O c #4C6895",
"+ c #4D6996",
"@ c #CE1126",
"# c #C3CCDB",
"$ c #C4CDDC",
"% c #C6CFDD",
"& c gray100",
/* pixels */
"@@@@@@@@@@@@@@@@@@",
"@@@@@@@@@@@@@@@@@@",
"@@@@@@@@@@@@@@@@@@",
"       .OO.       ",
"      X$&&$.      ",
"      O&&&&o      ",
"      O&&&&o      ",
"      .$&&$.      ",
"       .Oo.       ",
"@@@@@@@@@@@@@@@@@@",
"@@@@@@@@@@@@@@@@@@",
"@@@@@@@@@@@@@@@@@@"
};
