/* XPM */
static char *flag_CHL[] = {
/* columns rows colors chars-per-pixel */
"18 12 10 1",
"  c #0039A6",
". c #0940A9",
"X c #0F45AB",
"o c #184CAE",
"O c #184CAF",
"+ c #D52B1E",
"@ c #C6D3EB",
"# c #C8D4EC",
"$ c #CBD7ED",
"% c gray100",
/* pixels */
"      %%%%%%%%%%%%",
"  XX  %%%%%%%%%%%%",
" O$$o %%%%%%%%%%%%",
"  $@  %%%%%%%%%%%%",
"   .  %%%%%%%%%%%%",
"      %%%%%%%%%%%%",
"++++++++++++++++++",
"++++++++++++++++++",
"++++++++++++++++++",
"++++++++++++++++++",
"++++++++++++++++++",
"++++++++++++++++++"
};
