/* XPM */
static char *flag_SYR[] = {
/* columns rows colors chars-per-pixel */
"18 12 13 1",
"  c black",
". c #16864B",
"X c #14854C",
"o c #15854C",
"O c #16854C",
"+ c #CE1126",
"@ c #A2CEB8",
"# c #A2CFB8",
"$ c #BADBCB",
"% c #C2DFD0",
"& c #F1F7F4",
"* c #F3F9F5",
"= c gray100",
/* pixels */
"++++++++++++++++++",
"++++++++++++++++++",
"++++++++++++++++++",
"++++++++++++++++++",
"=====*======*=====",
"====#.%====%o#====",
"====$o&====&o$====",
"==================",
"                  ",
"                  ",
"                  ",
"                  "
};
