/* XPM */
static char *flag_TKM[] = {
/* columns rows colors chars-per-pixel */
"18 12 60 1",
"  c #5C724B",
". c #625A47",
"X c #6B5C47",
"o c #794D45",
"O c #755346",
"+ c #735A47",
"@ c #785A45",
"# c #656645",
"$ c #647B56",
"% c #6D7252",
"& c #6E7451",
"* c #6E7C54",
"= c #6B7F58",
"- c #6F7F58",
"; c #716048",
": c #796242",
"> c #7A6B57",
", c #75794D",
"< c #74784F",
"1 c #777A4C",
"2 c #787A4D",
"3 c #727A52",
"4 c #707C53",
"5 c #28AE66",
"6 c #2FB16B",
"7 c #32B26E",
"8 c #3BB574",
"9 c #3DB675",
"0 c #3EB775",
"q c #3EB676",
"w c #46B97B",
"e c #48BA7D",
"r c #53BE85",
"t c #74CB9C",
"y c #8C523B",
"u c #8C533F",
"i c #8B4943",
"p c #8A4E42",
"a c #8C4F4B",
"s c #8D5A42",
"d c #994342",
"f c #9A5140",
"g c #9D5841",
"h c #82714C",
"j c #936140",
"k c #9A6044",
"l c #9B6C5C",
"z c #846862",
"x c #977167",
"c c #987572",
"v c #9B7570",
"b c #A34240",
"n c #A15C40",
"m c #B75446",
"M c #A16843",
"N c #A0655D",
"B c #D24A3F",
"V c #D04442",
"C c #A4827C",
"Z c #84D1A7",
/* pixels */
"55j>c*555555555555",
"55xzh*500055555555",
"55fup18e5t55555555",
"55@y:%57rZ55555555",
"55ndb256w555555555",
"55+aO$555555555555",
"55goi1555555555555",
"55;# &555555555555",
"55s.X<555555555555",
"55glC3555555555555",
"55NvM-555555555555",
"55mVB=555555555555"
};
