/* XPM */
static char *flag_MEX[] = {
/* columns rows colors chars-per-pixel */
"21 12 32 1",
"  c #006847",
". c #70452D",
"X c #7F8774",
"o c #8A6945",
"O c #8F7158",
"+ c #857F75",
"@ c #A97F5C",
"# c #CE1126",
"$ c #B0998A",
"% c #AEB394",
"& c #A0B7A7",
"* c #BADACE",
"= c #D5BEAC",
"- c #CEC093",
"; c #DAC79E",
": c #D4D5BB",
"> c #C0D5C4",
", c #C8D2C1",
"< c #E6DAD2",
"1 c #E6DBD4",
"2 c #EFE6D5",
"3 c #EBECDA",
"4 c #EAECDC",
"5 c #EDE7E5",
"6 c #F9F9F5",
"7 c #FAFAF7",
"8 c #FCFCFA",
"9 c #FFFDFD",
"0 c #FEFEFC",
"q c #FEFEFD",
"w c #FFFFFE",
"e c gray100",
/* pixels */
"       eeeeeee#######",
"       eeeeeee#######",
"       eeeeeee#######",
"       ee9=<ee#######",
"       ee;@.<e#######",
"       e2-oO$8#######",
"       e,&X+:e#######",
"       e4*%>4e#######",
"       ee656ee#######",
"       eeeeeee#######",
"       eeeeeee#######",
"       eeeeeee#######"
};
