/* XPM */
static char *flag_ALB[] = {
/* columns rows colors chars-per-pixel */
"17 12 32 1",
"  c black",
". c #010000",
"X c #020000",
"o c #080101",
"O c #180303",
"+ c #230505",
"@ c #270506",
"# c #330707",
"$ c #340707",
"% c #370708",
"& c #3A0808",
"* c #48090A",
"= c #480A0A",
"- c #5B0C0D",
"; c #730F10",
": c #781011",
"> c #791011",
", c #891213",
"< c #8A1213",
"1 c #8F1314",
"2 c #941315",
"3 c #941415",
"4 c #991415",
"5 c #A11517",
"6 c #A21517",
"7 c #A51617",
"8 c #A61617",
"9 c #A91618",
"0 c #BB191A",
"q c #C31A1B",
"w c #DA1D1F",
"e c #E41E20",
/* pixels */
"eeeeeeeeeeeeeeeee",
"eeeeeeeeeeeeeeeee",
"eeeee0q;w;q0eeeee",
"eeeee4&-%-&4eeeee",
"eeeee,@XXX@,eeeee",
"eeeee2#XXX$3eeeee",
"eeeee71*O=17eeeee",
"eeeee67:o:76eeeee",
"eeeeeee9+9eeeeeee",
"eeeeeeee6eeeeeeee",
"eeeeeeeeeeeeeeeee",
"eeeeeeeeeeeeeeeee"
};
