/* XPM */
static char *flag_DEU[] = {
/* columns rows colors chars-per-pixel */
"20 12 3 1",
"  c black",
". c #DD0000",
"X c #FFCE00",
/* pixels */
"                    ",
"                    ",
"                    ",
"                    ",
"....................",
"....................",
"....................",
"....................",
"XXXXXXXXXXXXXXXXXXXX",
"XXXXXXXXXXXXXXXXXXXX",
"XXXXXXXXXXXXXXXXXXXX",
"XXXXXXXXXXXXXXXXXXXX"
};
