/* XPM */
static char *flag_BRA[] = {
/* columns rows colors chars-per-pixel */
"17 12 54 1",
"  c #002776",
". c #0C2F70",
"X c #082F7E",
"o c #09307F",
"O c #0C337F",
"+ c #0E357F",
"@ c #0F367F",
"# c #13356D",
"$ c #10377F",
"% c #11367E",
"& c #1E407A",
"* c #3A515B",
"= c #3B525B",
"- c #395B7F",
"; c #455B63",
": c #35598B",
"> c #355A8F",
", c #385C8F",
"< c #355991",
"1 c #486B8A",
"2 c #446499",
"3 c #5779A0",
"4 c #009B3A",
"5 c #0F9F37",
"6 c #0A9E38",
"7 c #13A036",
"8 c #18A135",
"9 c #1CA234",
"0 c #3DAB2C",
"q c #44AD2B",
"w c #4DAF28",
"e c #5EB425",
"r c #62B524",
"t c #7A8FAC",
"y c #9E9A2C",
"u c #9E9A31",
"i c #A3A13E",
"p c #AEAE53",
"a c #90C219",
"s c #A1C715",
"d c #A9C913",
"f c #B2CB11",
"g c #C9B918",
"h c #CABA18",
"j c #CABA1A",
"k c #D7D509",
"l c #DCD608",
"z c #E7CF0D",
"x c #E8CF0A",
"c c #E8CF0B",
"v c #E2D806",
"b c #E6D905",
"n c #E6D017",
"m c #FEDF00",
/* pixels */
"44444444444444444",
"44444446r64444444",
"4444440kmlq444444",
"44445ag*.*gs74444",
"444wvn1>% #cbe444",
"48dmmi:<3t,ymmf94",
"48dmmu+o+ 2pmmf94",
"444wvz&OX%-cbe444",
"44445ag=.;gs74444",
"4444440kmlq444444",
"44444446r64444444",
"44444444444444444"
};
