/* XPM */
static char *flag_ARM[] = {
/* columns rows colors chars-per-pixel */
"24 12 3 1",
"  c #0033A0",
". c #D90012",
"X c #F2A800",
/* pixels */
"........................",
"........................",
"........................",
"........................",
"                        ",
"                        ",
"                        ",
"                        ",
"XXXXXXXXXXXXXXXXXXXXXXXX",
"XXXXXXXXXXXXXXXXXXXXXXXX",
"XXXXXXXXXXXXXXXXXXXXXXXX",
"XXXXXXXXXXXXXXXXXXXXXXXX"
};
