/* XPM */
static char *flag_SRB[] = {
/* columns rows colors chars-per-pixel */
"18 12 46 1",
"  c #0C4076",
". c #B87C33",
"X c #B87D34",
"o c #BE7E35",
"O c #BB7C3F",
"+ c #BC783F",
"@ c #AE5D42",
"# c #BE544A",
"$ c #BE5B44",
"% c #A56E7E",
"& c #C5363C",
"* c #C6363C",
"= c #C33D3C",
"- c #C5383C",
"; c #C2793F",
": c #C04F46",
"> c #C35741",
", c #CC6846",
"< c #C76651",
"1 c #CE7457",
"2 c #C07E87",
"3 c #BA95A0",
"4 c #D38B8D",
"5 c #D28E8E",
"6 c #DE9684",
"7 c #DE9886",
"8 c #DF9888",
"9 c #D19A9A",
"0 c #D49B9D",
"q c #D59C9F",
"w c #DC9B9D",
"e c #D59FA0",
"r c #C1A8AF",
"t c #CEA9AF",
"y c #CAB2B8",
"u c #DAABAC",
"i c #D2B9BA",
"p c #E19A9D",
"a c #E5AEA7",
"s c #EAB5B7",
"d c #EDBABD",
"f c #D7C0C3",
"g c #FBEFF0",
"h c #FBF5F5",
"j c #FDF9FA",
"k c gray100",
/* pixels */
"******************",
"*****#@:**********",
"****$+;O>*********",
"****=.oX-*********",
"    2<p<%         ",
"    fequy         ",
"    i4s0r         ",
"    t5w93         ",
"kkkk81h,akkkkkkkkk",
"kkkkg6d7jkkkkkkkkk",
"kkkkkkkkkkkkkkkkkk",
"kkkkkkkkkkkkkkkkkk"
};
