/* XPM */
static char *flag_BLZ[] = {
/* columns rows colors chars-per-pixel */
"18 12 81 1",
"  c #003F87",
". c #0E4A8E",
"X c #0F4A8E",
"o c #104B8F",
"O c #33659F",
"+ c #34679D",
"@ c #34669F",
"# c #6992AF",
"$ c #6B93B0",
"% c #6C94B2",
"& c #6F93B9",
"* c #7093BC",
"= c #7194BC",
"- c #7295BD",
"; c #71B489",
": c #70B58A",
"> c #B01834",
", c #8B594E",
"< c #9BAE69",
"1 c #90B572",
"2 c #A2A37B",
"3 c #99C479",
"4 c #9FCC79",
"5 c #EC915B",
"6 c #ECCD78",
"7 c #9ABE81",
"8 c #96B5BF",
"9 c #96B6BF",
"0 c #96B7BE",
"q c #97B7BF",
"w c #BC968C",
"e c #A1B884",
"r c #B3AF87",
"t c #99B8C3",
"y c #9AB8C3",
"u c #9CB9C8",
"i c #A1BBCC",
"p c #A5C19A",
"a c #ABC8A4",
"s c #AEC9A6",
"d c #ADCDA0",
"f c #AEC9B3",
"g c #AECBB4",
"h c #B2CEA4",
"j c #B1C9A9",
"k c #B0CBAA",
"l c #B2CAAB",
"z c #B5C9AC",
"x c #BBCFB4",
"c c #B8CFBF",
"v c #BAD3B6",
"b c #BCD1B3",
"n c #BDD1B7",
"m c #BAD1C2",
"M c #BCD1C4",
"N c #E7AB8B",
"B c #CDE0B9",
"V c #EDD885",
"C c #E0CEBE",
"Z c #C1D2C7",
"A c #C6D6C0",
"S c #C2D3C8",
"D c #C2D3C9",
"F c #C5D7CD",
"G c #C7D7CF",
"H c #CBD8C4",
"J c #CCD9C5",
"K c #D0DECC",
"L c #D7E0D1",
"P c #DCE4D0",
"I c #D9E5D8",
"U c #DFE6EA",
"Y c #EFDBCF",
"T c #F6DCC8",
"R c #ECE3E2",
"E c #EAE9EC",
"W c #E6EAF2",
"Q c #FAEBE0",
"! c #FEFBF1",
"~ c #FEFEFE",
"^ c gray100",
/* pixels */
">>>>>>>>>>>>>>>>>>",
"      o$yi#o      ",
"     +fsdhxc+     ",
"    ogLr7<2vDX    ",
"    %zN5e1,wp&    ",
"    qHQTY6CRJt    ",
"    qH^^EV!^At    ",
"    -aB4:;3Pk*    ",
"    oMnWKIUxFX    ",
"     +GkZDjmO     ",
"      X*uq*X      ",
">>>>>>>>>>>>>>>>>>"
};
