/* XPM */
static char *flag_MOZ[] = {
/* columns rows colors chars-per-pixel */
"18 12 51 1",
"  c black",
". c #3D050F",
"X c #371E23",
"o c #381F24",
"O c #202020",
"+ c gray13",
"@ c #096D66",
"# c #007168",
"$ c #23615F",
"% c #754516",
"& c #485056",
"* c #3F948D",
"= c #43918B",
"- c #AF0D2B",
"; c #AE1330",
": c #AF1431",
"> c #B90E2E",
", c #BD0E2F",
"< c #B01F3D",
"1 c #853347",
"2 c #87782D",
"3 c #974557",
"4 c #957459",
"5 c #C20F30",
"6 c #C60F31",
"7 c #CA0F32",
"8 c #C71536",
"9 c #D01034",
"0 c #D21034",
"q c #D31433",
"w c #D31533",
"e c #D31632",
"r c #D41A31",
"t c #D43829",
"y c #D9312C",
"u c #D86E19",
"i c #D37421",
"p c #E05623",
"a c #E26020",
"s c #E46B32",
"d c #E36838",
"f c #C28130",
"g c #E89214",
"h c #ED9912",
"j c #F5BE09",
"k c #FADA02",
"l c #FCE100",
"z c #FCE33F",
"x c #FDE83F",
"c c gray72",
"v c #C5BBA6",
/* pixels */
"1@################",
"0<$###############",
"008&##############",
"00q03=************",
"0-u>7;XO+++++++O++",
"t%2fp05.          ",
"04cvq05.          ",
",isg6:o+++++++++++",
"0q0qdzxxxxxxxxxxxx",
"00rhllllllllllllll",
"0yjlllllllllllllll",
"akllllllllllllllll"
};
