/* XPM */
static char *flag_SAU[] = {
/* columns rows colors chars-per-pixel */
"18 12 37 1",
"  c #006C35",
". c #016D36",
"X c #026D37",
"o c #036E37",
"O c #046E38",
"+ c #066F3A",
"@ c #07703B",
"# c #09713C",
"$ c #1C7C4B",
"% c #1F7E4E",
"& c #217F4F",
"* c #2A8456",
"= c #3A8D63",
"- c #3E9066",
"; c #45946C",
": c #4C9871",
"> c #4D9872",
", c #559D78",
"< c #5AA07C",
"1 c #5EA27F",
"2 c #5FA380",
"3 c #61A482",
"4 c #62A483",
"5 c #65A685",
"6 c #6AA989",
"7 c #72AE8F",
"8 c #79B295",
"9 c #85B99E",
"0 c #86B99F",
"q c #87BAA0",
"w c #89BBA2",
"e c #8ABCA2",
"r c #8DBDA5",
"t c #8EBEA5",
"y c #96C2AC",
"u c #9CC6B1",
"i c #ADD0BE",
/* pixels */
"                  ",
"                  ",
"     + +##  +     ",
"    *u44ri46r-    ",
"    $e0<7081y=    ",
"    %y5qw4275;    ",
"            +     ",
"                  ",
"     #>,,,>5&     ",
"            +     ",
"                  ",
"                  "
};
