/* XPM */
static char *flag_JAM[] = {
/* columns rows colors chars-per-pixel */
"24 12 21 1",
"  c black",
". c #020200",
"X c #030200",
"o c #040300",
"O c #554600",
"+ c #5E4D00",
"@ c #665400",
"# c #009B3A",
"$ c #039B39",
"% c #029C3A",
"& c #049C39",
"* c #55AD27",
"= c #5EAF25",
"- c #66B123",
"; c #D7B100",
": c #D9B300",
"> c #DDB600",
", c #D7C909",
"< c #D9C908",
"1 c #DDCA08",
"2 c #FED100",
/* pixels */
"221-$$$$$###########*<22",
"+:22<=$$#########$=<22:+",
"..O;221-$#######*,22>@X.",
"....O;221-$###*<22:@X...",
"......+:22<==<22:+......",
"........+:2222:+........",
"........O:2222>@........",
"......+;22<==<22;+......",
"...XO;221-$###*,22>@X...",
"..O;221-$#######*,22>@..",
"+:22,=$##########$=,22:+",
"221-$###############*,22"
};
