/* XPM */
static char *flag_MYS[] = {
/* columns rows colors chars-per-pixel */
"24 12 41 1",
"  c #16115E",
". c #1A145C",
"X c #010066",
"o c #020166",
"O c #040265",
"+ c #050364",
"@ c #060464",
"# c #090663",
"$ c #0A0762",
"% c #0B0862",
"& c #0D0961",
"* c #100C60",
"= c #110D60",
"- c #211A59",
"; c #231B58",
": c #241F77",
"> c #322752",
", c #3D304E",
"< c #6B553C",
"1 c #735B38",
"2 c #7C6235",
"3 c #7D6334",
"4 c #7F6633",
"5 c #594643",
"6 c #5A4742",
"7 c #876C30",
"8 c #8D712E",
"9 c #97792A",
"0 c #9E7E27",
"q c #D32526",
"w c #DB494A",
"e c #E26E6F",
"r c #B18E1F",
"t c #A18126",
"y c #CCA314",
"u c #D3A912",
"i c #D4AA11",
"p c #FFCC00",
"a c #E99292",
"s c #F1B7B7",
"d c #F8DBDB",
/* pixels */
"XXXX==XXXXXXqqqqqqqqqqqq",
"XX@t2> .=XXXssssssssssss",
"XX<8X&3y3%XXeeeeeeeeeeee",
"XX95X-ipu;XXeeeeeeeeeeee",
"XX50X@1r1OXXssssssssssss",
"XXX47,&=#XXXqqqqqqqqqqqq",
"::::::::::::dddddddddddd",
"wwwwwwwwwwwwwwwwwwwwwwww",
"aaaaaaaaaaaaaaaaaaaaaaaa",
"aaaaaaaaaaaaaaaaaaaaaaaa",
"wwwwwwwwwwwwwwwwwwwwwwww",
"dddddddddddddddddddddddd"
};
