/* XPM */
static char *flag_SDN[] = {
/* columns rows colors chars-per-pixel */
"24 12 21 1",
"  c black",
". c #000502",
"X c #001407",
"o c #002E10",
"O c #00471A",
"+ c #00481A",
"@ c #006023",
"# c #006E28",
"$ c #076F2A",
"% c #007229",
"& c #097731",
"* c #21632B",
"= c #7E382F",
"- c #4D4E2D",
"; c #28884B",
": c #AD2132",
"> c #C91434",
", c #D21034",
"< c #99C7A9",
"1 c #D2E6D9",
"2 c gray100",
/* pixels */
"->,,,,,,,,,,,,,,,,,,,,,,",
"%*:,,,,,,,,,,,,,,,,,,,,,",
"%%$=,,,,,,,,,,,,,,,,,,,,",
"%%%%->,,,,,,,,,,,,,,,,,,",
"%%%%%;122222222222222222",
"%%%%%%&<2222222222222222",
"%%%%%%&<2222222222222222",
"%%%%%;122222222222222222",
"%%%%+.                  ",
"%%#o                    ",
"%@X                     ",
"O.                      "
};
