/* XPM */
static char *flag_GEO[] = {
/* columns rows colors chars-per-pixel */
"18 12 22 1",
"  c red",
". c #FF2D2D",
"X c #FF3939",
"o c #FF3A3A",
"O c #FF9494",
"+ c #FF9595",
"@ c #FFA4A4",
"# c #FFB5B5",
"$ c #FFB6B6",
"% c #FFC0C0",
"& c #FFC1C1",
"* c #FFC8C8",
"= c #FFC9C9",
"- c #FFCCCC",
"; c #FFD9D9",
": c #FFDADA",
"> c #FFF5F5",
", c snow",
"< c #FFFBFB",
"1 c #FFFDFD",
"2 c #FFFEFE",
"3 c gray100",
/* pixels */
"3333333-  -3333333",
"33,O=33-  -33*O,33",
"33&.o>3-  -3>o.&33",
"333#:33-  -33:#333",
"-------@  @-=-----",
"                  ",
"                  ",
"-------@  @-------",
"333#:33-  -33:#333",
"33&.o>3-  -3>o.&33",
"33,O=33-  -33=O,33",
"3333333=  -3333333"
};
