/* XPM */
static char *flag_USA[] = {
/* columns rows colors chars-per-pixel */
"23 12 51 1",
"  c #3E3D70",
". c #403F71",
"X c #444374",
"o c #464576",
"O c #474676",
"+ c #484777",
"@ c #4C4B7A",
"# c #504F7C",
"$ c #51507D",
"% c #53527F",
"& c #545380",
"* c #545480",
"= c #575682",
"- c #585782",
"; c #585783",
": c #585883",
"> c #595883",
", c #585884",
"< c #595884",
"1 c #595984",
"2 c #5A5984",
"3 c #5B5A84",
"4 c #5B5A85",
"5 c #5C5B86",
"6 c #5D5C85",
"7 c #5C5C86",
"8 c #5D5C86",
"9 c #5D5C87",
"0 c #5F5E87",
"q c #61608A",
"w c #63628B",
"e c #63638B",
"r c #64638C",
"t c #65648D",
"y c #9F354C",
"u c #B83344",
"i c #A95065",
"p c #B26B7E",
"a c #C45563",
"s c #926E8A",
"d c #926F8A",
"f c #936F8B",
"g c #93708B",
"h c #D07782",
"j c #BC8798",
"k c #CD919D",
"l c #DC9AA2",
"z c #C5A2B0",
"x c #CEBDC9",
"c c #E7BBC1",
"v c #F3DDE0",
/* pixels */
"< <>X<*O<yuuuuuuuuuuuuu",
"$<<q<*q8$xvvvvvvvvvvvvv",
"+<$<<@88+iaaaaaaaaaaaaa",
"->0t<8e8>zccccccccccccc",
"<O88+8>@<phhhhhhhhhhhhh",
"*>8q>>e<*jlllllllllllll",
"gsggggssgklllllllllllll",
"hhhhhhhhhhhhhhhhhhhhhhh",
"ccccccccccccccccccccccc",
"aaaaaaaaaaaaaaaaaaaaaaa",
"vvvvvvvvvvvvvvvvvvvvvvv",
"uuuuuuuuuuuuuuuuuuuuuuu"
};
