/* XPM */
static char *flag_ZAF[] = {
/* columns rows colors chars-per-pixel */
"18 12 44 1",
"  c black",
". c #010100",
"X c #1F1602",
"o c #007A4D",
"O c #097C4B",
"+ c #0B7D4B",
"@ c #097F53",
"# c #664907",
"$ c #002395",
"% c #012495",
"& c #022596",
"* c #1F3EA2",
"= c #2442A4",
"- c #677CC0",
"; c #3B883F",
": c #399875",
"> c #3B9976",
", c #40893F",
"< c #778AC6",
"1 c #DE3831",
"2 c #DE3932",
"3 c #DE3A33",
"4 c #E2504A",
"5 c #E3544E",
"6 c #8E9B2C",
"7 c #999E2A",
"8 c #BA840D",
"9 c #BA850E",
"0 c #CFA61A",
"q c #D2A619",
"w c #88C1AC",
"e c #8EC4B0",
"r c #BAC3E2",
"t c #EB8884",
"y c #ED9591",
"u c #C1DFD4",
"i c #C0C9E4",
"p c #CCE4DB",
"a c #D5E2DA",
"s c #D6E3DC",
"d c #CDE2E0",
"f c #D0E3E1",
"g c #F4C9C7",
"h c #F4CECD",
/* pixels */
"oo:sy2111111111111",
";oo@eg411111111111",
"87+oo:at2111111111",
".#q,oo@wh511111111",
"..X86Ooo:upppppppp",
"....#0;ooooooooooo",
"....#0;ooooooooooo",
"..X86Ooo>upppppppp",
".#q,oo@wi=$$$$$$$$",
"87+oo:d-$$$$$$$$$$",
";oo@er*$$$$$$$$$$$",
"oo:f<&$$$$$$$$$$$$"
};
