/* XPM */
static char *flag_UZB[] = {
/* columns rows colors chars-per-pixel */
"24 12 30 1",
"  c #1EB53A",
". c #3A9B37",
"X c #0099B5",
"o c #0199B5",
"O c #0299B5",
"+ c #029AB6",
"@ c #039AB6",
"# c #059BB6",
"$ c #0A9DB8",
"% c #0E9FBB",
"& c #0F9FBB",
"* c #109FBB",
"= c #10A0BA",
"- c #21839E",
"; c #22839E",
": c #378FA8",
"> c #2DAAC1",
", c #2EABC1",
"< c #2FABC2",
"1 c #31ADC2",
"2 c #33ADC3",
"3 c #4496AE",
"4 c #4597AE",
"5 c #459DB4",
"6 c #49A4BA",
"7 c #44B4C9",
"8 c #7BCAD9",
"9 c #83CDDB",
"0 c #FBEDEF",
"q c gray100",
/* pixels */
"XX27=X222XXXXXXXXXXXXXXX",
"X#8XX<<<<XXXXXXXXXXXXXXX",
"XX9X$*%%%XXXXXXXXXXXXXXX",
"--:654444---------------",
"000000000000000000000000",
"qqqqqqqqqqqqqqqqqqqqqqqq",
"qqqqqqqqqqqqqqqqqqqqqqqq",
"000000000000000000000000",
"........................",
"                        ",
"                        ",
"                        "
};
