/* XPM */
static char *flag_MNG[] = {
/* columns rows colors chars-per-pixel */
"24 12 28 1",
"  c #015197",
". c #C4272F",
"X c #C4292E",
"o c #C5292F",
"O c #C62D2D",
"+ c #C62C2E",
"@ c #C9392A",
"# c #C93A2A",
"$ c #CA3A29",
"% c #CC4227",
"& c #CF4826",
"* c #D25423",
"= c #D6621F",
"- c #D7621F",
"; c #DA6A1D",
": c #DB6F1C",
"> c #DC7519",
", c #DD7819",
"< c #E08017",
"1 c #E08317",
"2 c #E48C14",
"3 c #E79711",
"4 c #EBA20F",
"5 c #ECA60D",
"6 c #ECA70C",
"7 c #EEAE0B",
"8 c #EDAC0C",
"9 c #F0AE0C",
/* pixels */
"........        ........",
"...@@...        ........",
"...**...        ........",
"..X22X..        ........",
"..O11O..        ........",
".@,--,@.        ........",
".&7:;7&.        ........",
".&5945&.        ........",
".&8>18&.        ........",
".&7337&.        ........",
".O%OX%O.        ........",
"........        ........"
};
