/* XPM */
static char *flag_KHM[] = {
/* columns rows colors chars-per-pixel */
"19 12 32 1",
"  c #032EA1",
". c #E00025",
"X c #E00227",
"o c #E00328",
"O c #E10E31",
"+ c #E52546",
"@ c #E6304E",
"# c #E83E5A",
"$ c #E83E5B",
"% c #EC687F",
"& c #EC6980",
"* c #EF798C",
"= c #EF7A8D",
"- c #EF7B8D",
"; c #F3A0AE",
": c #F4A5B1",
"> c #F4A7B4",
", c #F5A8B4",
"< c #F5A9B5",
"1 c #F5ACB8",
"2 c #F5ADB8",
"3 c #F5B4BF",
"4 c #F9DBDF",
"5 c #FADBE0",
"6 c #FAE5E9",
"7 c #FCE4E8",
"8 c #FCE6EA",
"9 c #FDFAFB",
"0 c #FEF8F9",
"q c #FEF8FA",
"w c #FEFBFC",
"e c gray100",
/* pixels */
"                   ",
"                   ",
"                   ",
".........+.........",
".......$o6.$o......",
"......&4<0>5%......",
"......;0www0;......",
".....O2738372O.....",
".....@-<-<-<-@.....",
"                   ",
"                   ",
"                   "
};
