/* XPM */
static char *flag_PRY[] = {
/* columns rows colors chars-per-pixel */
"22 12 14 1",
"  c #0038A8",
". c #D52B1E",
"X c #CADFC5",
"o c #D5E6D2",
"O c #D3EAD5",
"+ c #D4ECD4",
"@ c gray88",
"# c #E1E1E1",
"$ c #E2E2E2",
"% c gray89",
"& c #E4E4E4",
"* c gray93",
"= c gray99",
"- c gray100",
/* pixels */
"......................",
"......................",
"......................",
"......................",
"---------=$$----------",
"---------$oX$---------",
"---------$O+@---------",
"---------=**=---------",
"                      ",
"                      ",
"                      ",
"                      "
};
