/* XPM */
static char *flag_BWA[] = {
/* columns rows colors chars-per-pixel */
"18 12 3 1",
"  c black",
". c #75AADB",
"X c #BAD5ED",
/* pixels */
"..................",
"..................",
"..................",
"..................",
"XXXXXXXXXXXXXXXXXX",
"                  ",
"                  ",
"XXXXXXXXXXXXXXXXXX",
"..................",
"..................",
"..................",
".................."
};
