/* XPM */
static char *flag_SVN[] = {
/* columns rows colors chars-per-pixel */
"24 12 14 1",
"  c #005DA4",
". c #075BA0",
"X c #065CA0",
"o c #186BA2",
"O c #255C99",
"+ c #327DB6",
"@ c #7085AE",
"# c #ED1C24",
"$ c #91A1C1",
"% c #92A2C1",
"& c #A0B4CF",
"* c #D5E4F0",
"= c #D6E5F0",
"- c gray100",
/* pixels */
"------------------------",
"------------------------",
"----&oo&----------------",
"----%++%----------------",
"    O**O                ",
"    .@@X                ",
"                        ",
"                        ",
"########################",
"########################",
"########################",
"########################"
};
