/* XPM */
static char *flag_MMR[] = {
/* columns rows colors chars-per-pixel */
"18 12 27 1",
"  c #34B233",
". c #36B335",
"X c #6BC76A",
"o c #71C971",
"O c #EA2839",
"+ c #EC404F",
"@ c #EC4150",
"# c #EF5764",
"$ c #F06A76",
"% c #FECB00",
"& c #FED329",
"* c #FED42A",
"= c #FEE47C",
"- c #FEE47D",
"; c #9AD999",
": c #F38790",
"> c #F5949C",
", c #D9F1D9",
"< c #DAF1D9",
"1 c #F1FAF1",
"2 c #F4FBF4",
"3 c #F6FCF6",
"4 c #F7FCF7",
"5 c #FEF9FA",
"6 c #FFFBFB",
"7 c #FEFFFE",
"8 c gray100",
/* pixels */
"%%%%%%%%%%%%%%%%%%",
"%%%%%%%%%%%%%%%%%%",
"%%%%%%%%*&%%%%%%%%",
"%%%%%%%%--%%%%%%%%",
"        ,,        ",
"    .;128821;.    ",
"      X3883o      ",
"       ,88,       ",
"OOOOOO+5>:5+OOOOOO",
"OOOOOO$#OO#$OOOOOO",
"OOOOOOOOOOOOOOOOOO",
"OOOOOOOOOOOOOOOOOO"
};
