/* XPM */
static char *flag_CPV[] = {
/* columns rows colors chars-per-pixel */
"20 12 24 1",
"  c #375777",
". c #365977",
"X c #3B5E75",
"o c #3C5D74",
"O c #6C795E",
"+ c #6D7B5D",
"@ c #6D7D5B",
"# c #6E7D5A",
"$ c #0A3E8D",
"% c #003893",
"& c #023A91",
"* c #063C90",
"= c #0D408C",
"- c #10428C",
"; c #CF2027",
": c #CF2427",
"> c #929449",
", c #F7E379",
"< c #F8E57B",
"1 c #F9E57A",
"2 c #F9E57B",
"3 c #FFFDF6",
"4 c #FFFDF7",
"5 c gray100",
/* pixels */
"%%%%%%%%%%%%%%%%%%%%",
"%%%%%%%%%%%%%%%%%%%%",
"%%%%%%%%%%%%%%%%%%%%",
"%%%%%%%%%%%%%%%%%%%%",
"%%%%%o=>=X%%%%%%%%%%",
"%%%%%O$%$O%%%%%%%%%%",
"5555135553,555555555",
";;;;:;;;;;:;;;;;;;;;",
"55551355531555555555",
"%%%%%@-%-@%%%%%%%%%%",
"%%%%% *>*.%%%%%%%%%%",
"%%%%%%%%%%%%%%%%%%%%"
};
