/* XPM */
static char *flag_MAR[] = {
/* columns rows colors chars-per-pixel */
"18 12 7 1",
"  c #424E31",
". c #534930",
"X c #8D372F",
"o c #A2312E",
"O c #A3302E",
"+ c #BA292D",
"@ c #C1272D",
/* pixels */
"@@@@@@@@@@@@@@@@@@",
"@@@@@@@@@@@@@@@@@@",
"@@@@@@@@@@@@@@@@@@",
"@@@@@@@@@@@@@@@@@@",
"@@@@@@@@oo@@@@@@@@",
"@@@@@@@X..X@@@@@@@",
"@@@@@@@@  @@@@@@@@",
"@@@@@@@+oo+@@@@@@@",
"@@@@@@@@@@@@@@@@@@",
"@@@@@@@@@@@@@@@@@@",
"@@@@@@@@@@@@@@@@@@",
"@@@@@@@@@@@@@@@@@@"
};
