/* XPM */
static char *flag_RWA[] = {
/* columns rows colors chars-per-pixel */
"18 12 18 1",
"  c #20603D",
". c #73B06E",
"X c #2AA6B5",
"o c #28A6B8",
"O c #31A8AE",
"+ c #01A1DD",
"@ c #00A1DE",
"# c #04A1DB",
"$ c #09A2D5",
"% c #0AA2D4",
"& c #0DA3D1",
"* c #0EA2D1",
"= c #13A4CB",
"- c #1FA5C0",
"; c #B0B832",
": c #87B35B",
"> c #9AB54A",
", c #FAD201",
/* pixels */
"@@@@@@@@@@@@@@@@@@",
"@@@@@@@@@@@@@#=&@@",
"@@@@@@@@@@@@@o>.$@",
"@@@@@@@@@@@@@O;:&@",
"@@@@@@@@@@@@@$X-@@",
"@@@@@@@@@@@@@@@@@@",
",,,,,,,,,,,,,,,,,,",
",,,,,,,,,,,,,,,,,,",
",,,,,,,,,,,,,,,,,,",
"                  ",
"                  ",
"                  "
};
