/* XPM */
static char *flag_KGZ[] = {
/* columns rows colors chars-per-pixel */
"20 12 34 1",
"  c #E8112D",
". c #E91C2B",
"X c #E91E2A",
"o c #E91F2A",
"O c #EA1C2B",
"+ c #EB2D27",
"@ c #EB2F27",
"# c #EB3127",
"$ c #EB3227",
"% c #EB3326",
"& c #EC3327",
"* c #EF5D1E",
"= c #ED5020",
"- c #EE5020",
"; c #F1661C",
": c #F16E1A",
"> c #F26C1A",
", c #F26C1B",
"< c #F26E1A",
"1 c #F26F1A",
"2 c #F1701A",
"3 c #F2701A",
"4 c #F27319",
"5 c #F27418",
"6 c #F48316",
"7 c #F48416",
"8 c #F58416",
"9 c #F58516",
"0 c #F38815",
"q c #F48816",
"w c #F69C10",
"e c #F79C10",
"r c #F7A90E",
"t c #F8A90E",
/* pixels */
"                    ",
"                    ",
"        O@&O        ",
"       %2991%       ",
"      O2*0q*1.      ",
"      %9e>1w9@      ",
"      @9;tr;6%      ",
"      O2*22-1.      ",
"       %>661%       ",
"        O&@.        ",
"                    ",
"                    "
};
