/* XPM */
static char *flag_IRQ[] = {
/* columns rows colors chars-per-pixel */
"18 12 22 1",
"  c black",
". c #010101",
"X c #4CA277",
"o c #52A57B",
"O c #70B492",
"+ c #74B796",
"@ c #CE1126",
"# c #81BD9F",
"$ c #A0CDB7",
"% c #A3CFBA",
"& c #A6D1BB",
"* c #B9DACA",
"= c #BEDDCE",
"- c #C5E1D3",
"; c #C6E1D4",
": c #E5F1EB",
"> c #F0F7F3",
", c #F4F9F7",
"< c #FBFDFC",
"1 c #FCFAFA",
"2 c #FEFBFC",
"3 c gray100",
/* pixels */
"@@@@@@@@@@@@@@@@@@",
"@@@@@@@@@@@@@@@@@@",
"@@@@@@@@@@@@@@@@@@",
"@@@@@@@@@@@@@@@@@@",
"222222222221222212",
"3333333*:=>%;33333",
"33333-OXo$#+&33333",
"33333,<33333333333",
"..................",
"..................",
"..................",
".................."
};
