/* XPM */
static char *flag_PAK[] = {
/* columns rows colors chars-per-pixel */
"18 12 38 1",
"  c #01411B",
". c #01411C",
"X c #02421D",
"o c #03421E",
"O c #03431E",
"+ c #04431F",
"@ c #054420",
"# c #064520",
"$ c #094723",
"% c #0E4B28",
"& c #1B5433",
"* c #1C5534",
"= c #215938",
"- c #265D3D",
"; c #2D6243",
": c #316446",
"> c #35684A",
", c #417155",
"< c #437257",
"1 c #4C795F",
"2 c #4D7A60",
"3 c #527D64",
"4 c #628972",
"5 c #749782",
"6 c #7FA08D",
"7 c #89A796",
"8 c #8AA897",
"9 c #98B2A3",
"0 c #9AB3A5",
"q c #A3BAAD",
"w c #A5BCAF",
"e c #D0DCD5",
"r c #E4EAE7",
"t c #EAEFEC",
"y c #EEF2F0",
"u c #F0F4F2",
"i c #F3F6F4",
"p c gray100",
/* pixels */
"pppp5.............",
"pppp7.............",
"pppp5....=:@......",
"pppp7...24..;-O...",
"pppp6..%r$..8q....",
"pppp6..,i...*O....",
"pppp6..,p>....@...",
"pppp6..%te*..@<...",
"pppp7...2iyw99@...",
"pppp5....=583.....",
"pppp7.............",
"pppp6............."
};
