/* XPM */
static char *flag_BLR[] = {
/* columns rows colors chars-per-pixel */
"24 12 26 1",
"  c #4AA657",
". c #C8313E",
"X c #D45D67",
"o c #DA757D",
"O c #C58882",
"+ c #DE8087",
"@ c #DE8088",
"# c #DF8990",
"$ c #C5A397",
"% c #C4AC9E",
"& c #C5AD9E",
"* c #E18991",
"= c #E08A91",
"- c #E08A92",
"; c #E08B92",
": c #E18D94",
"> c #E29198",
", c #E29299",
"< c #E3969D",
"1 c #E49BA1",
"2 c #E7A3A8",
"3 c #E8ACB1",
"4 c #EAAFB4",
"5 c #EBB1B7",
"6 c #EBB5BA",
"7 c #EDBABE",
/* pixels */
":3-.....................",
"<7>.....................",
"25>.....................",
"X-o.....................",
"4#1.....................",
"-6+.....................",
"-6@.....................",
"4#1.....................",
"X-O                     ",
"25%                     ",
"<7%                     ",
":3$                     "
};
