/* XPM */
static char *flag_LKA[] = {
/* columns rows colors chars-per-pixel */
"24 12 82 1",
"  c #005641",
". c #96371F",
"X c #91391D",
"o c #95391F",
"O c #8A2425",
"+ c #8C2526",
"@ c #8A2128",
"# c #8A2328",
"$ c #8C2029",
"% c #8D2029",
"& c #8C2923",
"* c #8F2A24",
"= c #902F22",
"- c #952A26",
"; c #952B26",
": c #993025",
"> c #9A3024",
", c #9A431A",
"< c #9E441A",
"1 c #9E5411",
"2 c #A04D17",
"3 c #A44D18",
"4 c #A35811",
"5 c #AB5715",
"6 c #AB5D12",
"7 c #AA5E11",
"8 c #AE5B14",
"9 c #AD5C13",
"0 c #B25A14",
"q c #B05F13",
"w c #B25E14",
"e c #B35F14",
"r c #A54020",
"t c #A64020",
"y c #AD680C",
"u c #AB6010",
"i c #B1680E",
"p c #B06C0B",
"a c #B06F0B",
"s c #B36014",
"d c #B66511",
"f c #B76710",
"g c #B66414",
"h c #B7720A",
"j c #BF720E",
"k c #C06F10",
"l c #C2740D",
"z c #C3740E",
"x c #C87D0B",
"c c #D17B10",
"v c #FF5B00",
"b c #C08205",
"n c #CF830B",
"m c #CE8E04",
"M c #D6810F",
"N c #D38E07",
"B c #D08A08",
"V c #D28908",
"C c #D8840D",
"Z c #DFA000",
"A c #E18F0B",
"S c #E19805",
"D c #E39806",
"F c #E69F04",
"G c #FF8000",
"H c #EAA501",
"J c #ECA602",
"K c #EDA702",
"L c #EFA703",
"P c #EAA800",
"I c #ECA900",
"U c #EDA900",
"Y c #F3A704",
"T c #F0AC00",
"R c #F3AF00",
"E c #F4AC02",
"W c #F4AD02",
"Q c #F4AE01",
"! c #F6AF01",
"~ c #F7AF01",
"^ c #FEB600",
"/ c #FFB700",
/* pixels */
"////////////////////////",
"/   wvvGCM%%%%%%%%%%%;AY",
"/   0vvGcr%*6%.2Xz8%%::Y",
"/   0vvGc%%sfJRImpiu<%%Y",
"/   0vvGc%%k9bRZyf4h=%%Y",
"/   0vvGc%%l5wHIHLRW#%%Y",
"/   0vvGc%%1yR//////*%%Y",
"/   0vvGc%%gBF/RnN!!%%%Y",
"/   0vvGc%%8oODs%3DIO%%Y",
"/   0vvGcr%%%,B@%6jx%::Y",
"/   wvvGCM%%%%%%%%%%%;AY",
"////////////////////////"
};
