/* XPM */
static char *flag_KOR[] = {
/* columns rows colors chars-per-pixel */
"18 12 44 1",
"  c #003478",
". c #143373",
"X c #153373",
"o c #2B306D",
"O c #4E245B",
"+ c #4D255C",
"@ c #462E66",
"# c #761C4D",
"$ c #781B4C",
"% c gray31",
"& c #565656",
"* c gray34",
"= c #5B5B5B",
"- c gray36",
"; c #5D5D5D",
": c #626262",
"> c #6A6A6A",
", c gray44",
"< c #695684",
"1 c #6A5784",
"2 c #6B5784",
"3 c #98264F",
"4 c #B3264B",
"5 c #C60C30",
"6 c #CB2343",
"7 c #CC2444",
"8 c #E07C90",
"9 c #E07D90",
"0 c #E17E91",
"q c #898989",
"w c #8E8E8E",
"e c #A0A0A0",
"r c gray63",
"t c gray64",
"y c #BCBCBC",
"u c #C5C5C5",
"i c #DDDDDD",
"p c #E1E1E1",
"a c #EFEFEF",
"s c #FBFAFB",
"d c #FBFBFB",
"f c #FDFDFD",
"g c #FEFCFD",
"h c gray100",
/* pixels */
"hhhhhhhhhhhhhhhhhh",
"hhhdqihhhhhhiqdhhh",
"hhhw*:hhhhhh:=ehhh",
"hha*%yg9669gu-*ahh",
"hhhprh955559hrphhh",
"hhhhhh355#+4hhhhhh",
"hhhhhho$O  @hhhhhh",
"hhhprh<    <hrphhh",
"hha*=yd<XX<du>*ahh",
"hhhw>:hhhhhh:,rhhh",
"hhhdqihhhhhhiqdhhh",
"hhhhhhhhhhhhhhhhhh"
};
