/* XPM */
static char *flag_TZA[] = {
/* columns rows colors chars-per-pixel */
"18 12 25 1",
"  c black",
". c #010100",
"X c #181402",
"o c #1C1702",
"O c #1D1802",
"+ c #544607",
"@ c #655409",
"# c #1EB53A",
"$ c #22B539",
"% c #46BB33",
"& c #4BBB32",
"* c #33ADB4",
"= c #34ACB4",
"- c #00A3DD",
"; c #07A5D8",
": c #AB9011",
"> c #B19510",
", c #B19512",
"< c #B39711",
"1 c #86BB73",
"2 c #86C329",
"3 c #C3BB33",
"4 c #C2BB34",
"5 c #C6C01B",
"6 c #C9C01A",
/* pixels */
"############%5@   ",
"##########$2<o    ",
"#########&6@    o:",
"#######$2<O    +3=",
"######%5@    o:1;-",
"####$2<O    +3=---",
"###%5@    X:1;----",
"#$2<O    +3=------",
"%5@    o:1;-------",
"<O    +4*---------",
"    o<1;----------",
"   +3=------------"
};
