/* XPM */
static char *flag_NAM[] = {
/* columns rows colors chars-per-pixel */
"18 12 44 1",
"  c #03367E",
". c #073A7C",
"X c #0D3C79",
"o c #0E3D79",
"O c #0F3E78",
"+ c #1A4573",
"@ c #1C4672",
"# c #244A6E",
"$ c #345466",
"% c #4D645A",
"& c #546757",
"* c #67744D",
"= c #6D7649",
"- c #617050",
"; c #777B45",
": c #003580",
"> c #013680",
", c #1F4E8F",
"< c #009543",
"1 c #019544",
"2 c #029644",
"3 c #1FA25A",
"4 c #24A45E",
"5 c #6784B1",
"6 c #6885B1",
"7 c #69BC8D",
"8 c #79C299",
"9 c #D21034",
"0 c #D31538",
"q c #D3173A",
"w c #DA3C59",
"e c #DB425E",
"r c #DC435F",
"t c #E17E8E",
"y c #E27E90",
"u c #8D8939",
"i c #A2962F",
"p c #FFCE00",
"a c #BEAAC1",
"s c #BFABC2",
"d c #BEC0B3",
"f c #C0BBB0",
"g c #C5BEB4",
"h c #E38A9D",
/* pixels */
":::::::::::::5hq99",
"::+$@::::::,se999q",
": -i=O::::6hq999wf",
":O;pu#::,sr999qy81",
": %*&O:5hq999wg4<<",
":::.:,sr9990t81<<<",
"::::5hq999wg4<<<<<",
"::,sr9990y81<<<<<<",
":5hq999wg4<<<<<<<<",
"sr9990t71<<<<<<<<<",
"q999ed3<<<<<<<<<<<",
"990y81<<<<<<<<<<<<"
};
