/* XPM */
static char *flag_JPN[] = {
/* columns rows colors chars-per-pixel */
"18 12 13 1",
"  c #BC002D",
". c #BC012E",
"X c #BD022F",
"o c #DD7D94",
"O c #DD7E95",
"+ c #DD7F96",
"@ c #DE8096",
"# c #DE8197",
"$ c #F0C5CF",
"% c #F0C6D0",
"& c #F0C7D1",
"* c #F1C8D2",
"= c gray100",
/* pixels */
"==================",
"==================",
"=======$OO%=======",
"======O    @======",
"=====$      %=====",
"=====O      O=====",
"=====O      @=====",
"=====%      *=====",
"======@    @======",
"=======%@@*=======",
"==================",
"=================="
};
