/* XPM */
static char *flag_ROU[] = {
/* columns rows colors chars-per-pixel */
"18 12 3 1",
"  c #002B7F",
". c #CE1126",
"X c #FCD116",
/* pixels */
"      XXXXXX......",
"      XXXXXX......",
"      XXXXXX......",
"      XXXXXX......",
"      XXXXXX......",
"      XXXXXX......",
"      XXXXXX......",
"      XXXXXX......",
"      XXXXXX......",
"      XXXXXX......",
"      XXXXXX......",
"      XXXXXX......"
};
