/* XPM */
static char *flag_BTN[] = {
/* columns rows colors chars-per-pixel */
"18 12 74 1",
"  c #FF4E12",
". c #FF4F13",
"X c #FF5015",
"o c #FF5218",
"O c #FF5319",
"+ c #FF551B",
"@ c #FF561D",
"# c #FF571E",
"$ c #FF5A14",
"% c #FF5F27",
"& c #FF5F29",
"* c #FF7B17",
"= c #FF7E1C",
"- c #FF6733",
"; c #FF6834",
": c #FF784A",
"> c #FFA81B",
", c #FF8156",
"< c #FF855B",
"1 c #FF8861",
"2 c #FF8A61",
"3 c #FF8B64",
"4 c #FF906C",
"5 c #FF9875",
"6 c #FFAB6B",
"7 c #FFC91E",
"8 c #FFD520",
"9 c #FFD521",
"0 c #FFD626",
"q c #FFD629",
"w c #FFD72A",
"e c #FFD72C",
"r c #FFD830",
"t c #FFDB43",
"y c #FFDD4A",
"u c #FFC970",
"i c #FEDA68",
"p c #FFA782",
"a c #FFA485",
"s c #FFA98B",
"d c #FFA98C",
"f c #FFAD91",
"g c #FFAE91",
"h c #FFBD8C",
"j c #FFB197",
"k c #FFB89F",
"l c #FFBDA0",
"z c #FFBFA9",
"x c #FFC89E",
"c c #FFD084",
"v c #FFC0AB",
"b c #FFC1AC",
"n c #FFC5AD",
"m c #FFCBB9",
"M c #FFCDBD",
"N c #FFE286",
"B c #FFEA8B",
"V c #FFE98C",
"C c #FFEC97",
"Z c #FFEC99",
"A c #FFEEA6",
"S c #FAEBAC",
"D c #FFEFAE",
"F c #FFECB1",
"G c #FFF2BA",
"H c #FFD0C0",
"J c #FFDEC4",
"K c #FFDDCE",
"L c #FFEAC9",
"P c #FDEED6",
"I c #FFEDE7",
"U c #FFFBE8",
"Y c #FFFDF6",
"T c #FFFEF9",
/* pixels */
"88888888888888887*",
"88888888880q88e>$ ",
"888888888yZGSi6O  ",
"888888880VUYPn-   ",
"888888888BTx1g1   ",
"888888tADuKMmd,   ",
"888888CFhvI5+     ",
"88888qLl3Xsag&    ",
"888eNLkj4  @v<    ",
"888cp:%M;         ",
"87=   #vX         ",
">$                "
};
