/* XPM */
static char *flag_TTO[] = {
/* columns rows colors chars-per-pixel */
"20 12 74 1",
"  c black",
". c #010101",
"X c #020202",
"o c gray1",
"O c #040404",
"+ c #070707",
"@ c #090909",
"# c #0B0B0B",
"$ c #0E0E0E",
"% c gray7",
"& c #161616",
"* c #191919",
"= c #1D1D1D",
"- c #232323",
"; c #282828",
": c #2C2C2C",
"> c #323232",
", c #393939",
"< c #3F3F3F",
"1 c #444444",
"2 c #4B4B4B",
"3 c gray33",
"4 c gray36",
"5 c #626262",
"6 c #6A6A6A",
"7 c #7F7E7E",
"8 c #DA1A35",
"9 c #DB1E38",
"0 c #DB1E39",
"q c #DB203B",
"w c #DB223C",
"e c #DC263F",
"r c #DC2842",
"t c #DD2A43",
"y c #DD2E46",
"u c #DE324A",
"i c #DF374E",
"p c #DF3951",
"a c #E03E55",
"s c #E1445A",
"d c #E24A5F",
"f c #E24D62",
"g c #E35367",
"h c #E45B6E",
"j c #E56174",
"k c #E66578",
"l c #E76D7E",
"z c #E97686",
"x c #EA7E8D",
"c c #908F8F",
"v c #939192",
"b c #9A9999",
"n c #A4A2A2",
"m c #ABA7A7",
"M c #B1ABAC",
"N c #B8B0B2",
"B c #BFB6B7",
"V c #C5B8BA",
"C c #CABABD",
"Z c #EB8593",
"A c #ED8D9A",
"S c #EDA0AB",
"D c #ECA6AF",
"F c #EAAEB6",
"G c #ECAAB4",
"H c #E7B8BE",
"J c #E9B4BC",
"K c #CFBDC0",
"L c #D4BEC1",
"P c #D8BFC2",
"I c #DCBFC3",
"U c #DFBEC3",
"Y c #E3BCC2",
"T c #E6BAC0",
/* pixels */
"zbO  3Fw888888888888",
"8hN$  ,Yy88888888888",
"88sK=  -La8888888888",
"888uU>  %Bg888888888",
"8888eJ2  Onl88888888",
"888889S6   7A8888888",
"8888888xv   5D988888",
"88888888km@  1Hr8888",
"888888888fV&  :Ui888",
"8888888888aP;  *Cd88",
"88888888888tT<  $Mj8",
"888888888888qG4   vZ"
};
