/* XPM */
static char *flag_IRN[] = {
/* columns rows colors chars-per-pixel */
"21 12 37 1",
"  c #239F40",
". c #59B66F",
"X c #5BB770",
"o c #65BC79",
"O c #66BC78",
"+ c #66BC7A",
"@ c #67BD7A",
"# c #67BD7B",
"$ c #68BD7C",
"% c #6ABE7E",
"& c #6BBF7F",
"* c #6CBF7F",
"= c #6DC080",
"- c #DA0000",
"; c #E33F3F",
": c #E34141",
"> c #E54C4C",
", c #E54D4D",
"< c #E54F4F",
"1 c #E64F4F",
"2 c #E65050",
"3 c #E65151",
"4 c #E65252",
"5 c #E65353",
"6 c #E65454",
"7 c #E65656",
"8 c #EE8383",
"9 c #F19B9B",
"0 c #F19D9D",
"q c #F19F9F",
"w c #F1A2A2",
"e c #F2A1A1",
"r c #F2A2A2",
"t c #F9E0E0",
"y c #FEFBFB",
"u c #FFFEFE",
"i c gray100",
/* pixels */
"                     ",
"                     ",
"                     ",
".*$#*#$#$#=#$#&#=#$$X",
"iiiiiiiiiitiiiiiiiiii",
"iiiiiiiiiq9qiiiiiiiii",
"iiiiiiiiiq8wiiiiiiiii",
"iiiiiiiiiywyiiiiiiiii",
";73>333>3>7>3>337>33:",
"---------------------",
"---------------------",
"---------------------"
};
