/* XPM */
static char *flag_ATG[] = {
/* columns rows colors chars-per-pixel */
"18 12 46 1",
"  c black",
". c #010100",
"X c #090102",
"o c #161202",
"O c #230306",
"+ c #251F03",
"@ c #262003",
"# c #2D2604",
"$ c #382F05",
"% c #3E3405",
"& c #355872",
"* c #4E060E",
"= c #6F3D55",
"- c #5E4F08",
"; c #645408",
": c #725E0A",
"> c #4A676C",
", c #096EBF",
"< c #2362AB",
"1 c #0072C6",
"2 c #788A5E",
"3 c #798B5E",
"4 c #800B18",
"5 c #AC0E20",
"6 c #AC2141",
"7 c #C51024",
"8 c #C5152D",
"9 c #CE1126",
"0 c #D01B2F",
"q c #D6384A",
"w c #C35B72",
"e c #E06B78",
"r c #9D830E",
"t c #9E830E",
"y c #A5AC4F",
"u c #A3AB50",
"i c #AFB44C",
"p c #C9A713",
"a c #CCA912",
"s c #F9CF15",
"d c #FACF16",
"f c #B1D4EE",
"g c #EDA5AD",
"h c #F7D7DA",
"j c #FDF5F6",
"k c gray100",
/* pixels */
"*                *",
"7O     #@@#     O7",
"95X   %;rr-$   X59",
"994  o:pdda:o  499",
"999=&>2uiiy2>&=999",
"9998<11111111<8999",
"99996,111111,69999",
"99999wffffffw99999",
"999999gkkkkg999999",
"9999990hkkh0999999",
"9999999qjjq9999999",
"99999999ee99999999"
};
