/* XPM */
static char *flag_TJK[] = {
/* columns rows colors chars-per-pixel */
"24 12 24 1",
"  c #006600",
". c #CC0000",
"X c #A2BF7B",
"o c #A3BE7B",
"O c #A5BF78",
"+ c #92BE92",
"@ c #E9928F",
"# c #E99191",
"$ c #FCE89A",
"% c #FCE89B",
"& c #FDEBAA",
"* c #FDEBAB",
"= c #FDF1C2",
"- c #FDF1C3",
"; c #FEF3CE",
": c #FEF4D2",
"> c #FEF5D7",
", c #FEF7DD",
"< c #FEF9E7",
"1 c #FFFBF0",
"2 c #FFFDF7",
"3 c #FFFEF9",
"4 c #FFFFFE",
"5 c gray100",
/* pixels */
"........................",
"........................",
"........................",
"###########@@###########",
"5555555555:<<:5555555555",
"555555555,1--1,555555555",
"555555555;3>>3;555555555",
"5555555552&$$&2555555555",
"++++++++++OXXO++++++++++",
"                        ",
"                        ",
"                        "
};
