/* XPM */
static char *flag_ERI[] = {
/* columns rows colors chars-per-pixel */
"24 12 55 1",
"  c #626E2F",
". c #696A30",
"X c #5778C7",
"o c #12AD2B",
"O c #2D972D",
"+ c #2F972C",
"@ c #4189DD",
"# c #A23D33",
"$ c #B2316F",
"% c #9A4333",
"& c #CF1935",
"* c #D41635",
"= c #EA0437",
"- c #EA0737",
"; c #EB0A36",
": c #EB1036",
"> c #EB1136",
", c #EB1236",
"< c #EC1436",
"1 c #EC1B35",
"2 c #ED1D35",
"3 c #ED1E35",
"4 c #ED1F34",
"5 c #ED2035",
"6 c #ED2434",
"7 c #EE2634",
"8 c #EF2F33",
"9 c #EF3533",
"0 c #F03832",
"q c #F03A32",
"w c #F03F31",
"e c #D91248",
"r c #F14132",
"t c #F24C31",
"y c #F35B2F",
"u c #F25230",
"i c #F35930",
"p c #F4602F",
"a c #F4642F",
"s c #F56A2E",
"d c #F56B2E",
"f c #F66F2E",
"g c #F6722D",
"h c #F6742E",
"j c #F6782C",
"k c #F7792D",
"l c #85549B",
"z c #F7802C",
"x c #F8832C",
"c c #F8872C",
"v c #F88A2B",
"b c #F8882C",
"n c #FA972B",
"m c #FA9C2A",
"M c #FBA429",
/* pixels */
"*#.+oooooooooooooooooooo",
"====*#.+oooooooooooooooo",
"====>2>;*#.+oooooooooooo",
"===9xppk5===*#.+oooooooo",
"==2c>ay6m=======*#.+oooo",
"==9i>vr=b<==========&% +",
"==wh6kw=M2==========e$lX",
"==2n0sguz;======e$lX@@@@",
"===8fgts>===e$lX@@@@@@@@",
"=====01=e$lX@@@@@@@@@@@@",
"====e$lX@@@@@@@@@@@@@@@@",
"e$lX@@@@@@@@@@@@@@@@@@@@"
};
