/* XPM */
static char *flag_VEN[] = {
/* columns rows colors chars-per-pixel */
"18 12 20 1",
"  c #00247D",
". c #02267F",
"X c #03277F",
"o c #05297F",
"O c #052980",
"+ c #173788",
"@ c #173789",
"# c #1D3C8B",
"$ c #1D3D8B",
"% c #334F96",
"& c #6F83B5",
"* c #7084B5",
"= c #788BBA",
"- c #798BBC",
"; c #CF142B",
": c #FFCC00",
"> c #8092BF",
", c #8192BF",
"< c #8294BF",
"1 c #8293C0",
/* pixels */
"::::::::::::::::::",
"::::::::::::::::::",
"::::::::::::::::::",
"::::::::::::::::::",
"      Oo=-OO      ",
"     O%1$$>%O     ",
"     +*    *+     ",
"     1      <     ",
";;;;;;;;;;;;;;;;;;",
";;;;;;;;;;;;;;;;;;",
";;;;;;;;;;;;;;;;;;",
";;;;;;;;;;;;;;;;;;"
};
