/* XPM */
static char *flag_LBN[] = {
/* columns rows colors chars-per-pixel */
"18 12 30 1",
"  c #02A752",
". c #08A956",
"X c #0FAB5B",
"o c #16AE60",
"O c #19AF62",
"+ c #20B167",
"@ c #2DB670",
"# c #2FB671",
"$ c #33B874",
"% c #3CBB7A",
"& c #4FC287",
"* c #71CD9E",
"= c #ED1C24",
"- c #81D3A9",
"; c #82D3AA",
": c #8BD7B0",
"> c #8CD7B1",
", c #8ED8B2",
"< c #AAE1C5",
"1 c #B7E6CE",
"2 c #BBE7D1",
"3 c #BFE9D3",
"4 c #C4EAD7",
"5 c #CCEDDC",
"6 c #D6F1E3",
"7 c #E5F6ED",
"8 c #F2FAF6",
"9 c #F6FCF9",
"0 c #FDFEFE",
"q c gray100",
/* pixels */
"==================",
"==================",
"==================",
"qqqqqqqq-,9qqqqqqq",
"qqqqqqq4+X2qqqqqqq",
"qqqqqqq&.O$7qqqqqq",
"qqqqqq5@X @3qqqqqq",
"qqqqqq<:o%-1qqqqqq",
"qqqqqqq6>*8qqqqqqq",
"==================",
"==================",
"=================="
};
