/* XPM */
static char *flag_EGY[] = {
/* columns rows colors chars-per-pixel */
"18 12 14 1",
"  c black",
". c #CE1126",
"X c #EDE0B8",
"o c #EDE0B9",
"O c #EEE2BC",
"+ c #EFE5C0",
"@ c #F6EED9",
"# c #F9F3E5",
"$ c #FAF5E7",
"% c #FDFAF4",
"& c #FDFAF5",
"* c #FEFEFC",
"= c #FFFFFE",
"- c gray100",
/* pixels */
"..................",
"..................",
"..................",
"..................",
"--------%---------",
"-------+oo+-------",
"-------o@@o-------",
"-------%#$%-------",
"                  ",
"                  ",
"                  ",
"                  "
};
