/* XPM */
static char *flag_BRB[] = {
/* columns rows colors chars-per-pixel */
"18 12 21 1",
"  c #00267F",
". c #6C5410",
"X c #6C5511",
"o c #725911",
"O c #735A11",
"+ c #7E6213",
"@ c #876914",
"# c #886A14",
"$ c #896B14",
"% c #8E6F15",
"& c #8F7015",
"* c #A68118",
"= c #A68119",
"- c #B48C1B",
"; c #B48D1B",
": c #B8901B",
"> c #CEA11E",
", c #CFA11F",
"< c #CFA21F",
"1 c #FCC526",
"2 c #FFC726",
/* pixels */
"      222222      ",
"      222222      ",
"      222222      ",
"      22<<21      ",
"      :&@@%:      ",
"      2o=&o2      ",
"      2####2      ",
"      2<..<2      ",
"      22--22      ",
"      222222      ",
"      222222      ",
"      222222      "
};
