/* XPM */
static char *flag_GNQ[] = {
/* columns rows colors chars-per-pixel */
"18 12 30 1",
"  c #0A79AC",
". c #2565B0",
"X c #0A6FC6",
"o c #0375C5",
"O c #0073CE",
"+ c #0B79D0",
"@ c #555489",
"# c #3E9A00",
"$ c #3B9809",
"% c #349323",
"& c #278B4E",
"* c #178280",
"= c #BD2E37",
"- c #8E405D",
"; c #D92520",
": c #E32118",
"> c #A6D5B6",
", c #9FCAED",
"< c #B3DCC1",
"1 c #D4E7F7",
"2 c #F0E7DF",
"3 c #FEF9DE",
"4 c #FFF9DF",
"5 c #EDE7E4",
"6 c #FFFCEE",
"7 c #FFFCEF",
"8 c #F1F1F1",
"9 c #F8F8F8",
"0 c #F9F9F9",
"q c gray100",
/* pixels */
"&#################",
"o%################",
"O $###############",
"OO*###############",
"OOO,qqq6336qqqqqqq",
"OOO+1qqq<>qqqqqqqq",
"OOO+1qqq25qqqqqqqq",
"OOO,qqq9889qqqqqqq",
"OO@:::::::::::::::",
"O.;:::::::::::::::",
"X=::::::::::::::::",
"-:::::::::::::::::"
};
