/* XPM */
static char *flag_GRD[] = {
/* columns rows colors chars-per-pixel */
"20 12 43 1",
"  c #007A5E",
". c #047B5D",
"X c #636842",
"o c #686B41",
"O c #696C40",
"+ c #6A6C40",
"@ c #1E8556",
"# c #248754",
"$ c #288852",
"% c #2B8952",
"& c #2D8A51",
"* c #328C4F",
"= c #7C873B",
"- c #749B3D",
"; c #749C3C",
": c #8C3338",
"> c #BB212C",
", c #AF642E",
"< c #B1682C",
"1 c #BC7728",
"2 c #BD7A28",
"3 c #BE7A29",
"4 c #CE1126",
"5 c #E4671D",
"6 c #E5671D",
"7 c #E46A1F",
"8 c #E46B1F",
"9 c #8CA936",
"0 c #97AE33",
"q c #A8B42E",
"w c #A0B130",
"e c #B1B72B",
"r c #B9BA29",
"t c #EE951C",
"y c #EF981B",
"u c #EF991B",
"i c #EE9A1A",
"p c #EF9B1B",
"a c #EF9C1B",
"s c #F8D017",
"d c #FAD017",
"f c #FBD016",
"g c #FCD116",
/* pixels */
"44444664466446644444",
"4>,<<22<<22<<22<<,>4",
"4:@0sdgggggggggdq#:4",
"4:  %wdggggggde&  :4",
"4:.   %qduugr*    :4",
"4:9-    Oua+      :4",
"4:;=    Xuto      :4",
"4:    %qduugr*    :4",
"4:  %wdggggggde&  :4",
"4:@0sggggggggggdq#:4",
"4>,<<11<<11<<11<<,>4",
"44444884488448844444"
};
