/* XPM */
static char *flag_ETH[] = {
/* columns rows colors chars-per-pixel */
"24 12 49 1",
"  c #087F44",
". c #53357E",
"X c #54357D",
"o c #54737E",
"O c #57747D",
"+ c #57757C",
"@ c #59767B",
"# c #5A777A",
"$ c #5F7A77",
"% c #5B7879",
"& c #5C7879",
"* c #5E7978",
"= c #5F7978",
"- c #617B76",
"; c #627C75",
": c #637C76",
"> c #657D73",
", c #0C5C87",
"< c #0C5D86",
"1 c #0F47AF",
"2 c #0E4BA6",
"3 c #0E4CA6",
"4 c #104BA7",
"5 c #1048AE",
"6 c #1D43A5",
"7 c #1E43A4",
"8 c #1D46A4",
"9 c #1B4EA6",
"0 c #1C4FA5",
"q c #1E51A5",
"w c #1F51A4",
"e c #27569F",
"r c #27579E",
"t c #335E96",
"y c #355E94",
"u c #305B98",
"i c #366093",
"p c #40668D",
"a c #078930",
"s c #08813F",
"d c #6B816E",
"f c #6E836C",
"g c #6E846C",
"h c #70846C",
"j c #BB1A31",
"k c #DA121A",
"l c #C3182B",
"z c #C4182A",
"x c #FCDD09",
/* pixels */
"aaaaaaaaaaaaaaaaaaaaaaaa",
"aaaaaaaaaaaaaaaaaaaaaaaa",
"aaaaaaaaas<44< aaaaaaaaa",
"aaaaaaaas3eype2saaaaaaaa",
"xxxxxxxx*1rOOe1*xxxxxxxx",
"xxxxxxxx9Ofhdg%0xxxxxxxx",
"xxxxxxxx0u;oO>uqxxxxxxxx",
"xxxxxxxx#5*-;#5$xxxxxxxx",
"kkkkkkkkj6tqqi7zkkkkkkkk",
"kkkkkkkkkl.88Xzkkkkkkkkk",
"kkkkkkkkkkkkkkkkkkkkkkkk",
"kkkkkkkkkkkkkkkkkkkkkkkk"
};
