/* XPM */
static char *flag_TUN[] = {
/* columns rows colors chars-per-pixel */
"18 12 21 1",
"  c #E70013",
". c #E80619",
"X c #E91829",
"o c #EF5764",
"O c #F05B67",
"+ c #F05D69",
"@ c #F16974",
"# c #F16A75",
"$ c #F48790",
"% c #F48891",
"& c #F48992",
"* c #F8B4B9",
"= c #F8B4BA",
"- c #F8B9BF",
"; c #F8BAC0",
": c #F9C1C6",
"> c #FAC4C8",
", c #FAC5C9",
"< c #FBD3D7",
"1 c #FBD5D9",
"2 c #FDE4E6",
/* pixels */
"                  ",
"                  ",
"                  ",
"      .%>>%.      ",
"      %#+;*%      ",
"      >X2o:1      ",
"      >X2o:<      ",
"      %#O-*$      ",
"      .%>>%.      ",
"                  ",
"                  ",
"                  "
};
