/* XPM */
static char *flag_VUT[] = {
/* columns rows colors chars-per-pixel */
"20 12 52 1",
"  c black",
". c #010100",
"X c #020200",
"o c #050400",
"O c #060500",
"+ c #120F01",
"@ c #191402",
"# c #032A12",
"$ c #002E14",
"% c #052A11",
"& c #042A12",
"* c #013316",
"= c #35080C",
"- c #3A060E",
"; c #3B070E",
": c #3E3106",
"> c #007334",
", c #007735",
"< c #007736",
"1 c #007836",
"2 c #007F39",
"3 c #410510",
"4 c #470611",
"5 c #4B3D05",
"6 c #4E3F05",
"7 c #504106",
"8 c #544506",
"9 c #554506",
"0 c #544607",
"q c #5C4B07",
"w c #5D4C07",
"e c #625007",
"r c #655207",
"t c #6E5A08",
"y c #7D6609",
"u c #008A3E",
"i c #009543",
"p c #9D0C27",
"a c #A70D29",
"s c #A70D2A",
"d c #AA0D2A",
"f c #B20E2C",
"g c #846C09",
"h c #8D730A",
"j c #C20F30",
"k c #D21034",
"l c #B3920D",
"z c #B4920D",
"x c #B4930D",
"c c #B6940D",
"v c #B8960D",
"b c #C09C0E",
/* pixels */
"=pkkkkkkkkkkkkkkkkkk",
"cr;akkkkkkkkkkkkkkkk",
"X5lr;dkkkkkkkkkkkkkk",
"XXX8l84fkkkkkkkkkkkk",
"X8htoql83djjjjjjjjjj",
"Xy:g@Xorby5877775886",
"Xe5c+Xorby8558778558",
"XXrqoql8$<uuuuuuuuuu",
"XXX8z8*2iiiiiiiiiiii",
"X5lr#<iiiiiiiiiiiiii",
"zr&<iiiiiiiiiiiiiiii",
"&>iiiiiiiiiiiiiiiiii"
};
