/* XPM */
static char *flag_STP[] = {
/* columns rows colors chars-per-pixel */
"24 12 17 1",
"  c #211B00",
". c #221B00",
"X c #221C00",
"o c #725E2F",
"O c #725F30",
"+ c #785A30",
"@ c #12AD2B",
"# c #B66823",
"$ c #B86324",
"% c #D21034",
"& c #E7691C",
"* c #E96F1A",
"= c #9AC012",
"- c #CBA400",
"; c #E1B600",
": c #E4B800",
"> c #FFCE00",
/* pixels */
"+@@@@@@@@@@@@@@@@@@@@@@@",
"%+@@@@@@@@@@@@@@@@@@@@@@",
"%%+@@@@@@@@@@@@@@@@@@@@@",
"%%%$====================",
"%%%%&>>>>>>;;>>>>;;>>>>>",
"%%%%%&>>>>- X->>- X->>>>",
"%%%%%*>>>>> X>>>> X>>>>>",
"%%%%*>>>>>>::>>>>::>>>>>",
"%%%#====================",
"%%O@@@@@@@@@@@@@@@@@@@@@",
"%O@@@@@@@@@@@@@@@@@@@@@@",
"o@@@@@@@@@@@@@@@@@@@@@@@"
};
