/* XPM */
static char *flag_IND[] = {
/* columns rows colors chars-per-pixel */
"18 12 13 1",
"  c #128807",
". c #FF9933",
"X c #9E9ED2",
"o c #9E9ED3",
"O c #9F9FD2",
"+ c #9F9FD3",
"@ c #9D9DD4",
"# c #9E9ED4",
"$ c #AEAED7",
"% c #ADADD8",
"& c #AEAED8",
"* c #F8F8FC",
"= c gray100",
/* pixels */
"..................",
"..................",
"..................",
"..................",
"=======*oo*=======",
"=======@$&@=======",
"=======@$&o=======",
"=======*oo*=======",
"                  ",
"                  ",
"                  ",
"                  "
};
