/* XPM */
static char *flag_POL[] = {
/* columns rows colors chars-per-pixel */
"19 12 2 1",
"  c #DC143C",
". c gray100",
/* pixels */
"...................",
"...................",
"...................",
"...................",
"...................",
"...................",
"                   ",
"                   ",
"                   ",
"                   ",
"                   ",
"                   "
};
