/* XPM */
static char *flag_SWE[] = {
"19 12 6 1",
". c #006AA7",
"X c #337E86",
"o c #40837E",
"O c #508973",
"+ c #73975C",
"@ c #FECC00",
"......@@O..........",
"......@@O..........",
"......@@O..........",
"......@@O..........",
"XXXXXo@@+XXXXXXXXXX",
"@@@@@@@@@@@@@@@@@@@",
"@@@@@@@@@@@@@@@@@@@",
"XXXXXo@@+XXXXXXXXXX",
"......@@O..........",
"......@@O..........",
"......@@O..........",
"......@@O.........."
};
