/* XPM */
static char *flag_PER[] = {
/* columns rows colors chars-per-pixel */
"18 12 2 1",
"  c #D91023",
". c gray100",
/* pixels */
"      ......      ",
"      ......      ",
"      ......      ",
"      ......      ",
"      ......      ",
"      ......      ",
"      ......      ",
"      ......      ",
"      ......      ",
"      ......      ",
"      ......      ",
"      ......      "
};
