/* XPM */
static char *flag_OMN[] = {
/* columns rows colors chars-per-pixel */
"24 12 18 1",
"  c #008000",
". c #DB161B",
"X c #DB1B20",
"o c #DC1C21",
"O c #DC1D22",
"+ c #DC1F24",
"@ c #DF3337",
"# c #E0393E",
"$ c #E3484C",
"% c #E55558",
"& c #E66365",
"* c #EC8588",
"= c #EF989B",
"- c #F09FA1",
"; c #F0A0A2",
": c #F0A7AA",
"> c #F6D2D3",
", c gray100",
/* pixels */
".X@#X.,,,,,,,,,,,,,,,,,,",
".o;-o.,,,,,,,,,,,,,,,,,,",
".=>:*.,,,,,,,,,,,,,,,,,,",
".&%$&.,,,,,,,,,,,,,,,,,,",
".+..+...................",
"........................",
"........................",
"........................",
"......                  ",
"......                  ",
"......                  ",
"......                  "
};
