/* XPM */
static char *flag_NPL[] = {
/* columns rows colors chars-per-pixel */
"10 12 64 1",
"  c black",
". c #352F7D",
"X c #402D79",
"o c #452D78",
"O c #4E2C75",
"+ c #64286C",
"@ c #782564",
"# c #0B378B",
"$ c #0B368D",
"% c #003692",
"& c #003792",
"* c #003594",
"= c #003595",
"- c #003596",
"; c #003694",
": c #003399",
"> c #003C91",
", c #143592",
"< c #273283",
"1 c #2F3182",
"2 c blue",
"3 c #951F57",
"4 c #951F59",
"5 c #981F57",
"6 c #9A1F56",
"7 c #9E1E54",
"8 c #9F1E54",
"9 c #981F58",
"0 c #87225E",
"q c #8F215B",
"w c #8C225C",
"e c #942159",
"r c #AC1C4F",
"t c #A11E53",
"y c #A11F54",
"u c #A51D53",
"i c #A6295B",
"p c #A02C61",
"a c #D8153D",
"s c #DB143D",
"d c #DC143C",
"f c #DC163E",
"g c #C41745",
"h c #C41845",
"j c #C01948",
"k c #DD1A41",
"l c #DD1D44",
"z c #CD3B63",
"x c #E02D51",
"c c #E34161",
"v c #E34464",
"b c #E55370",
"n c #E75D78",
"m c #EB8298",
"M c #EF97A9",
"N c #F098A9",
"B c #F19EAF",
"V c #F1A3B3",
"C c #F2A9B8",
"Z c #F8D1D9",
"A c #FAE1E6",
"S c #FDF0F3",
"D c gray100",
"F c None",
/* pixels */
"<>FFFFFFFF",
"6rX:FFFFFF",
"tda@,FFFFF",
"ekvdjO;FFF",
"pVDNka912F",
"4cmzhhhy.&",
"7dd0;;;:;;",
"ynBbw&FFFF",
"iADZkq;FFF",
"yCSMdd4#FF",
"tlxlddd9$F",
"+uuuuuu7o&"
};
