/* XPM */
static char *flag_DZA[] = {
/* columns rows colors chars-per-pixel */
"18 12 26 1",
"  c #0E5C33",
". c #0F5C33",
"X c #006233",
"o c #046033",
"O c #723633",
"+ c #733534",
"@ c #743534",
"# c #574034",
"$ c #584034",
"% c #AF1D33",
"& c #AF1E34",
"* c #B11C34",
"= c #B21D34",
"- c #C11734",
"; c #E05D75",
": c #E5778C",
"> c #E6788C",
", c #EB97A7",
"< c #F1B3BF",
"1 c #F1B4BF",
"2 c #FBECEF",
"3 c #FCEFF1",
"4 c #FDF7F8",
"5 c #FEF7F9",
"6 c #FEFAFB",
"7 c gray100",
/* pixels */
"XXXXXXXXX777777777",
"XXXXXXXXX777777777",
"XXXXXXXXX777777777",
"XXXXXXo+%><6777777",
"XXXXXX@= 734777777",
"XXXXXX-#X,;2777777",
"XXXXXX-$X,;2777777",
"XXXXXX+= 734777777",
"XXXXXXoO&:16777777",
"XXXXXXXXX777777777",
"XXXXXXXXX777777777",
"XXXXXXXXX777777777"
};
