/* XPM */
static char *flag_VCT[] = {
/* columns rows colors chars-per-pixel */
"18 12 16 1",
"  c #0072C6",
". c #009E60",
"X c #0FA15B",
"o c #11A15B",
"O c #20A457",
"+ c #76B63D",
"@ c #7EB73B",
"# c #7EB83B",
"$ c #7EA16E",
"% c #8CBA37",
"& c #8DBA36",
"* c #8EBB36",
"= c #EBCE1B",
"- c #ECCE1B",
"; c #EDCE1B",
": c #FCD116",
/* pixels */
"    $::::::::#....",
"    $::::::::#....",
"    $::::::::#....",
"    $::::::::#....",
"    $::&=;&::#....",
"    $:;o@@X=:#....",
"    $:;o++X=:#....",
"    $::&++&::#....",
"    $:::OO:::#....",
"    $:::@@:::#....",
"    $:::;;:::#....",
"    $::::::::#...."
};
