/* XPM */
static char *flag_IRL[] = {
/* columns rows colors chars-per-pixel */
"24 12 3 1",
"  c #169B62",
". c #FF883E",
"X c gray100",
/* pixels */
"        XXXXXXXX........",
"        XXXXXXXX........",
"        XXXXXXXX........",
"        XXXXXXXX........",
"        XXXXXXXX........",
"        XXXXXXXX........",
"        XXXXXXXX........",
"        XXXXXXXX........",
"        XXXXXXXX........",
"        XXXXXXXX........",
"        XXXXXXXX........",
"        XXXXXXXX........"
};
