/* XPM */
static char *flag_CUB[] = {
/* columns rows colors chars-per-pixel */
"24 12 36 1",
"  c #23267E",
". c #761D56",
"X c #7C1D53",
"o c #002A8F",
"O c #0B298A",
"+ c #0D2889",
"@ c #102987",
"# c #202780",
"$ c #931A48",
"% c #981A46",
"& c #CA152D",
"* c #CB152D",
"= c #CF142B",
"- c #CF152C",
"; c #CF162D",
": c #CB1F37",
"> c #D0182E",
", c #D42D41",
"< c #D42E42",
"1 c #D73A4D",
"2 c #D94557",
"3 c #CE4D63",
"4 c #DB5061",
"5 c #DF6070",
"6 c #B16A8A",
"7 c #E37481",
"8 c #E47A87",
"9 c #9AA9D2",
"0 c #9AABD3",
"q c #CDBCD1",
"w c #CEBCD0",
"e c #F2BEC4",
"r c #CDD5E9",
"t c #F8DBDF",
"y c #F8DFE2",
"u c gray100",
/* pixels */
"% oooooooooooooooooooooo",
"=*X@oooooooooooooooooooo",
"===:60000000000000000000",
"=====1euuuuuuuuuuuuuuuuu",
"===2===3wrrrrrrrrrrrrrrr",
"=>8t7-==*.Oooooooooooooo",
"==5y4===*.Oooooooooooooo",
"==<-<==3wrrrrrrrrrrrrrrr",
"=====1euuuuuuuuuuuuuuuuu",
"===:60000000000000000000",
"=*.+oooooooooooooooooooo",
"$#oooooooooooooooooooooo"
};
