/* XPM */
static char *flag_NER[] = {
/* columns rows colors chars-per-pixel */
"14 12 7 1",
"  c #0DB02B",
". c #E05206",
"X c #ED9C70",
"o c #ED9D71",
"O c #FDF3ED",
"+ c #FDF3EE",
"@ c gray100",
/* pixels */
"..............",
"..............",
"..............",
"..............",
"@@@@@OXXO@@@@@",
"@@@@@X..X@@@@@",
"@@@@@X..X@@@@@",
"@@@@@+XXO@@@@@",
"              ",
"              ",
"              ",
"              "
};
