/* XPM */
static char *flag_BRN[] = {
/* columns rows colors chars-per-pixel */
"24 12 112 2",
"   c black",
".  c #010100",
"X  c #020000",
"o  c #020200",
"O  c gray1",
"+  c #070601",
"@  c gray2",
"#  c #150204",
"$  c #1A190F",
"%  c #191916",
"&  c #360809",
"*  c #3E050C",
"=  c #3C0B0B",
"-  c #351115",
";  c #292504",
":  c #252312",
">  c #393405",
",  c #2A2A2A",
"<  c gray20",
"1  c #4D060D",
"2  c #4C060E",
"3  c #4F0A0E",
"4  c #4B120E",
"5  c #5A0711",
"6  c #5D0811",
"7  c #633A3E",
"8  c #4A4307",
"9  c #5A5208",
"0  c #4D4926",
"q  c #5A5632",
"w  c #6B610A",
"e  c #7B700B",
"r  c #4C4C4B",
"t  c #5D5D5D",
"y  c gray50",
"u  c #972919",
"i  c #9A2919",
"p  c #AB2C1B",
"a  c #B1311C",
"s  c #BD3E1E",
"d  c #8B7E0D",
"f  c #817933",
"g  c #944A51",
"h  c #86716F",
"j  c #BF6971",
"k  c #D63748",
"l  c #D7384B",
"z  c #CD481E",
"x  c #9C8D0F",
"c  c #AC9C10",
"v  c #B5A836",
"b  c #8E895E",
"n  c #D1811A",
"m  c #CEAE15",
"M  c #C6B312",
"N  c #E78C1C",
"B  c #E8901D",
"V  c #EBA51B",
"C  c #EAA51C",
"Z  c #EEB07E",
"A  c #DEC915",
"S  c #E7D115",
"D  c #F1C319",
"F  c #F4D018",
"G  c #F2DC17",
"H  c #F5DC17",
"J  c #F7DE17",
"K  c #F7E017",
"L  c #F7E019",
"P  c #F7E11D",
"I  c #F7E120",
"U  c #F8E226",
"Y  c #F8E53E",
"T  c #F9E74E",
"R  c #F9E855",
"E  c #F9E957",
"W  c #FAEB6D",
"Q  c #FAED7C",
"!  c #909090",
"~  c #A88E91",
"^  c #B2B2B2",
"/  c #DB868F",
"(  c #E88E98",
")  c #EA99A2",
"_  c #EBA0A8",
"`  c #F1B9C0",
"'  c #F1BEC3",
"]  c #F3C2AE",
"[  c #FBEF87",
"{  c #FBF08B",
"}  c #FCF29B",
"|  c #FCF4AA",
" . c #FDF5B7",
".. c #FDF6BA",
"X. c #C3C3C3",
"o. c #C5C5C5",
"O. c #D4C7C9",
"+. c #FDF8C9",
"@. c #FEFAD9",
"#. c gray92",
"$. c #F9E1E3",
"%. c #FBEDEE",
"&. c #FEFCE7",
"*. c #FEFCE8",
"=. c #F6F6F6",
"-. c #FFFDF3",
";. c #F8F8F8",
":. c #FFFEFA",
">. c #FFFDFD",
",. c #FFFFFC",
"<. c #FFFEFE",
"1. c gray100",
/* pixels */
"U K K K K K K K K K K K K K K K K K K K K K K K ",
"1.*...{ R P K K K K K K K K K K K K K K K K K K ",
"1.1.1.1.1.1.@.| Q T P J D K K K K K K K K K K K ",
"o.=.1.1.1.1.1.1.1.1.:.] Z W Y L K K K K K K K K ",
"    , t ! X.;.1.1.1.) l k ( 1.-.+.} W Y K K K L ",
"            @ < g ~ O.' ` %.$.) 1.1.1.1.&. .[ R ",
"v f 0 %         6 5 # - 7 h j / 1.1.1.1.1.1.1.1.",
"K K K K A c e 8 4 & i 1 3 u = * % r y ^ #.1.1.1.",
"K K K K K K K K J n z s a p 2             : q b ",
"K K K K K K K K J F V B N C m x w > +           ",
"K K K K K K K K K K K K K K K K K K G M d 9 ;   ",
"K K K K K K K K K K K K K K K K K K K K K K K S "
};
