/* XPM */
static char *flag_AGO[] = {
/* columns rows colors chars-per-pixel */
"18 12 36 1",
"  c #1F1916",
". c #211B16",
"X c #282016",
"o c #2C2416",
"O c #302816",
"+ c #413617",
"@ c #493E17",
"# c #524517",
"$ c #534717",
"% c #605116",
"& c #615116",
"* c #6C5C17",
"= c #746316",
"- c #806E17",
"; c #867216",
": c #8B7717",
"> c #927C17",
", c #D5231B",
"< c #D6261A",
"1 c #D8241B",
"2 c #D9261B",
"3 c #DA2E1A",
"4 c #DA311B",
"5 c #DA321B",
"6 c #D9371B",
"7 c #DC431A",
"8 c #DE441A",
"9 c #E0511A",
"0 c #E25A1A",
"q c #E46919",
"w c #E67D19",
"e c #988117",
"r c #A89017",
"t c #EB9119",
"y c #ED9E19",
"u c #EE9C18",
/* pixels */
"111111111111111111",
"111111111111111111",
"111111115t31111111",
"1111111185u111111,",
"11111111y09q1111,,",
",,,,,,,7<,6w,,,,,,",
"       -;.*$      ",
"      #o&r:X      ",
"      #>e=;+      ",
"           &O     ",
"                  ",
"                  "
};
