/* XPM */
static char *flag_UKR[] = {
/* columns rows colors chars-per-pixel */
"18 12 2 1",
"  c #005BBB",
". c #FFD500",
/* pixels */
"                  ",
"                  ",
"                  ",
"                  ",
"                  ",
"                  ",
"..................",
"..................",
"..................",
"..................",
"..................",
".................."
};
