/* XPM */
static char *flag_GBR[] = {
/* columns rows colors chars-per-pixel */
"24 12 30 1",
"  c #00247D",
". c #1D3D8C",
"X c #1E3E8C",
"o c #23428F",
"O c #CF142B",
"+ c #DB4E5F",
"@ c #DB5162",
"# c #DC5565",
"$ c #DD6071",
"% c #DD6171",
"& c #DD6576",
"* c #DE6776",
"= c #DF6F7E",
"- c #E0707F",
"; c #9A8BAF",
": c #9A8FB2",
"> c #9F8FB1",
", c #9F93B5",
"< c #A997B6",
"1 c #91A1C7",
"2 c #97A6CA",
"3 c #A2AFD0",
"4 c #EEABB3",
"5 c #F2C0C6",
"6 c #F3C5CB",
"7 c #F4C8CD",
"8 c #F5D0D5",
"9 c #F7F8FB",
"0 c #F9FAFC",
"q c #FAFBFC",
/* pixels */
"@6q3o     8OO8     .;*@6",
",-+5q2.   8OO8   .,-+5q2",
" .:=+5q3o 8OO8 .:=+5q3o ",
"   .:=+5q38OO8:=+5q3o   ",
"88888888884OO48888888888",
"OOOOOOOOOOOOOOOOOOOOOOOO",
"OOOOOOOOOOOOOOOOOOOOOOOO",
"88888888884OO48888888888",
"   .197#%<8OO8197#%<o   ",
" .197#%<o 8OO8 .197#%<o ",
"2q7#%>.   8OO8   .2q7#%>",
"6@*<o     8OO8     .196@"
};
