/* XPM */
static char *flag_FJI[] = {
/* columns rows colors chars-per-pixel */
"24 12 53 1",
"  c #002868",
". c #062D6C",
"X c #072E6C",
"o c #09306D",
"O c #796A8D",
"+ c #7F6B8E",
"@ c #667EA4",
"# c #6B82A7",
"$ c #778CAE",
"% c #6AB8DE",
"& c #7EA6C4",
"* c #7EBBCD",
"= c #71B3D5",
"- c #68BFE5",
"; c #D63648",
": c #DA7429",
"> c #EA7818",
", c #DC4461",
"< c #DD5F76",
"1 c #E16078",
"2 c #E16F7C",
"3 c #897392",
"4 c #AD7A8E",
"5 c #E48413",
"6 c #ED8514",
"7 c #D68C66",
"8 c #D88270",
"9 c #D09C7A",
"0 c #9DA4AD",
"q c #B68C98",
"w c #BA9587",
"e c #A493AB",
"r c #A1A5A8",
"t c #81BDD7",
"y c #A4CC84",
"u c #A3D5B8",
"i c #BAD2BD",
"p c #8DC1D9",
"a c #92C4D3",
"s c #9AC7DA",
"d c #C2959E",
"f c #DA8794",
"g c #DC8693",
"h c #DA8997",
"j c #CFA2AF",
"k c #CBA8A9",
"l c #CFADAD",
"z c #D8ADB1",
"x c #DEB2BC",
"c c #DEB5BF",
"v c #E2B2BC",
"b c #F3BEC8",
"n c #F4F8F6",
/* pixels */
"fx#. 22 .+fx------------",
".Ohv$22Ohv$o------------",
"22222;;22222---=&&&&=---",
"22222;;22222---q:56>4---",
".@cg322@cg3o---0987wr---",
"xf+. 22 .#xf---ailzus---",
"---------------e1,,<e---",
"---------------tnbkyt---",
"----------------pjd*----",
"-----------------%%-----",
"------------------------",
"------------------------"
};
