/* XPM */
static char *flag_CAF[] = {
/* columns rows colors chars-per-pixel */
"18 12 13 1",
"  c #09357D",
". c #163E77",
"X c #69205B",
"o c #7D532E",
"O c #425960",
"+ c #003082",
"@ c #289728",
"# c #D21034",
"$ c #E86F1A",
"% c #A8982C",
"& c #FFCE00",
"* c #E88799",
"= c gray100",
/* pixels */
"++..+++X##X+++++++",
"+ %% ++X##X+++++++",
"++OO+++X##X+++++++",
"=======*##*=======",
"=======*##*=======",
"=======*##*=======",
"@@@@@@@o##o@@@@@@@",
"@@@@@@@o##o@@@@@@@",
"@@@@@@@o##o@@@@@@@",
"&&&&&&&$##$&&&&&&&",
"&&&&&&&$##$&&&&&&&",
"&&&&&&&$##$&&&&&&&"
};
