/* XPM */
static char *flag_MLT[] = {
/* columns rows colors chars-per-pixel */
"18 12 14 1",
"  c #CF142B",
". c #BFA19E",
"X c #B7AFAA",
"o c #BCA9A3",
"O c #BBA9A9",
"+ c #D0A2A5",
"@ c #D0A6A8",
"# c #DAB2B6",
"$ c #DCB3B7",
"% c #DFB6BA",
"& c #E2BABE",
"* c #E9C8CC",
"= c #E9C9CC",
"- c gray100",
/* pixels */
"-=$------         ",
"=.o&-----         ",
"#OX@-----         ",
"-%+------         ",
"---------         ",
"---------         ",
"---------         ",
"---------         ",
"---------         ",
"---------         ",
"---------         ",
"---------         "
};
