/* XPM */
static char *flag_URY[] = {
/* columns rows colors chars-per-pixel */
"18 12 28 1",
"  c #0038A8",
". c #547AC5",
"X c #DEB814",
"o c #F6D02F",
"O c #FAD42E",
"+ c #FBDB51",
"@ c #FDDE55",
"# c #FDDF58",
"$ c #FDE473",
"% c #FDE579",
"& c #AABDE2",
"* c #FEEB9C",
"= c #FEF0B5",
"- c #FEF2BE",
"; c #C7D3EC",
": c #FEF4C6",
"> c #FEF5CB",
", c #FFF7D6",
"< c #FFF8DE",
"1 c #E3E9F5",
"2 c #FFF9E0",
"3 c #FFFAE6",
"4 c #FFFBE9",
"5 c #FFFBEC",
"6 c #FFFBED",
"7 c #FFFDF4",
"8 c #FFFDF5",
"9 c gray100",
/* pixels */
"999999999999999999",
"98>=29;...........",
"9:+o$6;...........",
"9-OX#<999999999999",
"9,%@*8&           ",
"9943691&&&&&&&&&&&",
"&&&&&&&&&&&&&&&&&&",
"                  ",
"999999999999999999",
"..................",
"..................",
"999999999999999999"
};
