/* XPM */
static char *flag_MKD[] = {
/* columns rows colors chars-per-pixel */
"24 12 54 1",
"  c #D20000",
". c #D40A00",
"X c #D40D00",
"o c #D50F00",
"O c #D61200",
"+ c #D61300",
"@ c #D61400",
"# c #D71700",
"$ c #D92300",
"% c #DD3500",
"& c #DD3600",
"* c #DD3900",
"= c #DD3D00",
"- c #DE3D00",
"; c #DF4200",
": c #E04900",
"> c #E14D00",
", c #E25200",
"< c #E25300",
"1 c #E35300",
"2 c #E25400",
"3 c #E45C00",
"4 c #E66600",
"5 c #E97400",
"6 c #E97500",
"7 c #E97600",
"8 c #EA7A00",
"9 c #EA7B00",
"0 c #EA7C00",
"q c #EB8000",
"w c #ED8A00",
"e c #EE8D00",
"r c #EE8E00",
"t c #EE8F00",
"y c #EE9100",
"u c #EF9400",
"i c #F09900",
"p c #F19E00",
"a c #F2A400",
"s c #F3A900",
"d c #F4AE00",
"f c #F4B000",
"g c #F5B100",
"h c #F8C200",
"j c #F8C300",
"k c #F8C400",
"l c #F8C500",
"z c #FBCF00",
"x c #FBD300",
"c c #FCD700",
"v c #FDD900",
"b c #FDDB00",
"n c #FFE500",
"m c #FFE600",
/* pixels */
"&smv3     Omm@     >cmf-",
"  &sma#    kj    @pmf-  ",
"    &sx:   rr   ;xf-    ",
"      &siO 11 Xwf-      ",
"$.      *y-66-y*      .$",
"mmvjduq41&9mm9&14qudjbmm",
"mmvjduq41%9mm9&14qudjvmm",
"$.      *r-55-y*      .$",
"      &diX 22 Xwf-      ",
"    &sx;   rr   ;xf-    ",
"  &sma@    ll    @pmf-  ",
"&smv3     Omm@     >xmf-"
};
