/* XPM */
static char *flag_PNG[] = {
/* columns rows colors chars-per-pixel */
"16 12 55 1",
"  c black",
". c #010101",
"X c gray1",
"o c #070101",
"O c gray2",
"+ c #090102",
"@ c gray3",
"# c #090909",
"$ c gray7",
"% c gray9",
"& c #1E1E1E",
"* c #200306",
"= c #202020",
"- c #2A2A2A",
"; c #2C2C2C",
": c gray18",
"> c #313131",
", c #343434",
"< c #373737",
"1 c #3A3A3A",
"2 c #4C060E",
"3 c #4F0A12",
"4 c #7C0A17",
"5 c gray33",
"6 c gray34",
"7 c #5A5A5A",
"8 c gray45",
"9 c #800B18",
"0 c #AA0E1F",
"q c #C51024",
"w c #CE1126",
"e c #CE1226",
"r c #CE1326",
"t c #CF1425",
"y c #CF1726",
"u c #D01B25",
"i c #D32324",
"p c #D63024",
"a c #D63423",
"s c #D73823",
"d c #D83A23",
"f c #D83B23",
"g c #D94122",
"h c #DD5120",
"j c #E56F1F",
"k c #E5731D",
"l c #E87D1D",
"z c #EB881C",
"x c #ED921C",
"c c #EF991B",
"v c #F1A31A",
"b c #F5B419",
"n c #FBCF16",
"m c #FCD016",
"M c #FCD116",
/* pixels */
"2qwwwwwwwwwwwwww",
" *0wwwwwwwifwwww",
"  o4wwwwwpkziwww",
"    3qwwgcnMvwww",
"   57*0whjMbxuww",
"   ## o4wwflapww",
" =7  8; 2qwyfsww",
" %,  &$  *0witww",
"    -O    o4wwww",
"   ;>       2qww",
"   ,1        *0w",
"              +9"
};
