/* XPM */
static char *flag_NZL[] = {
/* columns rows colors chars-per-pixel */
"24 12 37 1",
"  c #00247D",
". c #03277F",
"X c #04287F",
"o c #05297F",
"O c #052980",
"+ c #062980",
"@ c #072A81",
"# c #092C82",
"$ c #0E2F83",
"% c #123386",
"& c #163484",
"* c #163485",
"= c #1B3B89",
"- c #1A3A8A",
"; c #2B438F",
": c #595E99",
"> c #796A99",
", c #7F6A99",
"< c #696CA1",
"1 c #667CB1",
"2 c #6B80B4",
"3 c #778ABA",
"4 c #D4394C",
"5 c #C5697F",
"6 c #E0717F",
"7 c #88719C",
"8 c #AF7792",
"9 c #AF7694",
"0 c #BE718B",
"q c #BF728C",
"w c #C97991",
"e c #DB8796",
"r c #D98897",
"t c #D98B9B",
"y c #E2B3BF",
"u c #DDB3C0",
"i c #DEB6C2",
/* pixels */
"ru2+ 66 +,ru            ",
"+>ty366>ty3#     **     ",
"666664466666     89     ",
"666664466666     ++ %   ",
"+1ie7661ie7#  -<   =w+  ",
"ur,+ 66 +2ur  :5   +o   ",
"                        ",
"                        ",
"                 $$     ",
"                 0q     ",
"                 ;;     ",
"                        "
};
