/* XPM */
static char *flag_NGA[] = {
/* columns rows colors chars-per-pixel */
"24 12 2 1",
"  c #008751",
". c gray100",
/* pixels */
"        ........        ",
"        ........        ",
"        ........        ",
"        ........        ",
"        ........        ",
"        ........        ",
"        ........        ",
"        ........        ",
"        ........        ",
"        ........        ",
"        ........        ",
"        ........        "
};
