/* XPM */
static char *flag_AUS[] = {
/* columns rows colors chars-per-pixel */
"24 12 37 1",
"  c #00008B",
". c #01018B",
"X c #02028C",
"o c #03038C",
"O c #04048D",
"+ c #06068E",
"@ c #07078E",
"# c #09098F",
"$ c #0D0D91",
"% c #0F0F92",
"& c #151595",
"* c #1A1A97",
"= c #20209A",
"- c #25259C",
"; c #28289D",
": c #3131A1",
"> c #3C3CA6",
", c #4242A9",
"< c #4646AB",
"1 c #5F5FB6",
"2 c #6666B9",
"3 c #6B6BBC",
"4 c #7777C1",
"5 c #FF2828",
"6 c #FF6565",
"7 c #825498",
"8 c #895696",
"9 c #935E99",
"0 c #F37C83",
"q c #F07D85",
"w c #BBBBE0",
"e c #EF8089",
"r c #EAABB6",
"t c #EFACB5",
"y c #EAAEB9",
"u c #CCCCE8",
"i c #D5D5EC",
/* pixels */
"qr3+ 66 +8qr            ",
"+7et4667et4#     >>     ",
"666665566666     ,,     ",
"666665566666        $o  ",
"+2y09662y09#  ==   ow-  ",
"rq8+ 66 +3rq  11    #   ",
"                  $<    ",
"    +**+                ",
"    &ii&                ",
"    :uu:         >>     ",
"     ;;          ,,     ",
"                        "
};
