/* XPM */
static char *flag_SUR[] = {
/* columns rows colors chars-per-pixel */
"18 12 15 1",
"  c #377E3F",
". c #B40A2D",
"X c #B6112C",
"o c #BB212C",
"O c #BF2C2A",
"+ c #C03329",
"@ c #C03429",
"# c #CE6326",
"$ c #D06B25",
"% c #DE9821",
"& c #EBC21D",
"* c #B0CCB3",
"= c #E19DAA",
"- c #E19DAB",
"; c #E19EA8",
/* pixels */
"                  ",
"                  ",
"******************",
"------------------",
"........@+........",
"......X#%%#X......",
".......o&&o.......",
".......O$$O.......",
"-------;--;-------",
"******************",
"                  ",
"                  "
};
