/* XPM */
static char *flag_PRT[] = {
/* columns rows colors chars-per-pixel */
"18 12 37 1",
"  c #006600",
". c #5A9C00",
"X c #62A10A",
"o c #6CA703",
"O c #6FA911",
"+ c #7FB300",
"@ c #CC1400",
"# c red",
"$ c #FF1500",
"% c #FF2D00",
"& c #FF5C1F",
"* c #FF4637",
"= c #FF6E00",
"- c #FF7911",
"; c #F96935",
": c #FF6D36",
"> c #FC723E",
", c #D97447",
"< c #FB4B47",
"1 c #FD4F41",
"2 c #92BE00",
"3 c #A2C700",
"4 c #B9D400",
"5 c #BEC022",
"6 c #FF8000",
"7 c #F58D3D",
"8 c #F7923B",
"9 c #EEAF0B",
"0 c #EBA511",
"q c #FFA300",
"w c #FFB800",
"e c #FDA13A",
"r c #FFDB00",
"t c #A1B3D8",
"y c #A5B5DA",
"u c #E1B2B9",
"i c #DDBDC4",
/* pixels */
"       @##########",
"       @##########",
"       @##########",
"     XO0-$########",
"    48*:&w########",
"    37it>6%#######",
"    2,uy1q%#######",
"    +5;<er########",
"     .o9=$########",
"       @##########",
"       @##########",
"       @##########"
};
