/* XPM */
static char *flag_AUT[] = {
/* columns rows colors chars-per-pixel */
"18 12 2 1",
"  c #ED2939",
". c gray100",
/* pixels */
"                  ",
"                  ",
"                  ",
"                  ",
"..................",
"..................",
"..................",
"..................",
"                  ",
"                  ",
"                  ",
"                  "
};
