/* XPM */
static char *flag_COK[] = {
/* columns rows colors chars-per-pixel */
"24 12 67 1",
"  c #00247D",
". c #01257E",
"X c #03277F",
"o c #062980",
"O c #072A81",
"+ c #092C82",
"@ c #0A2C82",
"# c #113285",
"$ c #113386",
"% c #173788",
"& c #254490",
"* c #254491",
"= c #385499",
"- c #395599",
"; c #38549A",
": c #38559A",
"> c #39569A",
", c #3A569B",
"< c #415B9E",
"1 c #415C9E",
"2 c #4861A1",
"3 c #4860A2",
"4 c #4C65A4",
"5 c #4D65A4",
"6 c #546DA9",
"7 c #556EA8",
"8 c #5C72AA",
"9 c #5C73AB",
"0 c #796A99",
"q c #7F6A99",
"w c #647BB0",
"e c #657BB1",
"r c #667CB1",
"t c #6B80B4",
"y c #778ABA",
"u c #D7394C",
"i c #E2717F",
"p c #89719C",
"a c #8596C1",
"s c #8597C0",
"d c #8F9FC6",
"f c #909FC6",
"g c #94A2C7",
"h c #93A2C8",
"j c #96A3C9",
"k c #95A4C8",
"l c #96A5C9",
"z c #96A6C9",
"x c #98A7CA",
"c c #99A6CC",
"v c #A8B5D2",
"b c #AAB5D1",
"n c #B7C1DA",
"m c #BAC3DB",
"M c #BBC4DC",
"N c #DD8796",
"B c #DA8897",
"V c #DA8B9B",
"C c #E2B3BF",
"Z c #DEB3C0",
"A c #DFB6C2",
"S c #C2CBDF",
"D c #C2CCE0",
"F c #D6DBEA",
"G c #D5DCEA",
"H c #DDE2ED",
"J c #DDE2EE",
/* pixels */
"BZto ii oqBZ            ",
"o0VCyii0VCy+    2aa3    ",
"iiiiiuuiiiii  &5F77F5*  ",
"iiiiiuuiiiii  vcX  Xxv  ",
"orANpiirANp@ wD     XDw ",
"ZBqo ii @rZV >>      ;> ",
"             Mf      fm ",
"             %l      l% ",
"             #m;    >n# ",
"              @J9hj8J@  ",
"                <jj<    ",
"                        "
};
