/* XPM */
static char *flag_SLB[] = {
/* columns rows colors chars-per-pixel */
"24 12 45 1",
"  c #215B33",
". c #245C32",
"X c #245D32",
"o c #0051BA",
"O c #0152BA",
"+ c #0252B9",
"@ c #0352B8",
"# c #0856BC",
"$ c #0C59BD",
"% c #0D5ABE",
"& c #125DBF",
"* c #1A63C1",
"= c #1B64C2",
"- c #266CC4",
"; c #2A6DC5",
": c #2A6EC5",
"> c #2B6EC6",
", c #2D6FC6",
"< c #2E70C6",
"1 c #3273C8",
"2 c #3474C8",
"3 c #3978CA",
"4 c #3A79CA",
"5 c #547C83",
"6 c #5A7F80",
"7 c #407DCB",
"8 c #417DCB",
"9 c #427FCC",
"0 c #6F8629",
"q c #798B28",
"w c #4681CC",
"e c #4781CE",
"r c #5A8ED2",
"t c #DFC11C",
"y c #DBC027",
"u c #DCC127",
"i c #E3C41B",
"p c #8EB1E0",
"a c #93B4E2",
"s c #96B9E3",
"d c #E7EEF9",
"f c #E9F0F8",
"g c #EBF1F9",
"h c #F0F4FA",
"j c #F2F5FB",
/* pixels */
"o,oooo<ooooooooooooo@6ui",
"%fsoo,h7ooooooooooo5uiqX",
"o31o;#e*ooooooooo5uiqX  ",
"ooopg&ooooooooo5uiqX    ",
"o-o27o-ooooo@5uiqX      ",
"%daoo;h7ooo5uiqX        ",
"oe3oo#r=@5uiqX          ",
"ooooooo5uiqX            ",
"oooo@5uiqX              ",
"ooo5uiqX                ",
"@5uiqX                  ",
"ui0X                    "
};
