/* XPM */
static char *flag_BHS[] = {
/* columns rows colors chars-per-pixel */
"24 12 23 1",
"  c black",
". c #000304",
"X c #060502",
"o c #000C0E",
"O c #001B20",
"+ c #002E36",
"@ c #00323A",
"# c #004450",
"$ c #004A57",
"% c #006172",
"& c #4B4314",
"* c #6C611C",
"= c #007B91",
"- c #008EA7",
"; c #0091AA",
": c #009EB9",
"> c #00A0BC",
", c #00A9C7",
"< c #00ABC9",
"1 c #D9C239",
"2 c #DAC339",
"3 c #EDD53F",
"4 c #FAE042",
/* pixels */
"+-<<<<<<<<<<<<<<<<<<<<<<",
" .#:<<<<<<<<<<<<<<<<<<<<",
"   o%,<<<<<<<<<<<<<<<<<<",
"     O=<<<<<<<<<<<<<<<<<",
"       &1444444444444444",
"        X*34444444444444",
"        X*34444444444444",
"       &1444444444444444",
"     O=<<<<<<<<<<<<<<<<<",
"   o%,<<<<<<<<<<<<<<<<<<",
" .$><<<<<<<<<<<<<<<<<<<<",
"@;<<<<<<<<<<<<<<<<<<<<<<"
};
