/* XPM */
static char *flag_PHL[] = {
/* columns rows colors chars-per-pixel */
"24 12 51 1",
"  c #0038A8",
". c #033AA9",
"X c #0D42AC",
"o c #1448AF",
"O c #2253B4",
"+ c #2B5AB7",
"@ c #476FC0",
"# c #6F8FCE",
"$ c #CE1126",
"% c #CF1429",
"& c #D01D31",
"* c #D12034",
"= c #D43042",
"- c #D53547",
"; c #DC5362",
": c #E37984",
"> c #FCD116",
", c #FCD117",
"< c #FDDA3E",
"1 c #FDDA3F",
"2 c #92AAD7",
"3 c #99AFDC",
"4 c #B3C4E5",
"5 c #BBCAE8",
"6 c #EA98A1",
"7 c #EA99A0",
"8 c #F0B8BE",
"9 c #F1BAC0",
"0 c #FEE88F",
"q c #FEE790",
"w c #FEEB9F",
"e c #FEEC9C",
"r c #FEEEA8",
"t c #FEF3BE",
"y c #D6DFF1",
"u c #F7D9DC",
"i c #FAEFC3",
"p c #FDEFC0",
"a c #FEF5C5",
"s c #FAF3CF",
"d c #FFF3C8",
"f c #FDF2CE",
"g c #FFF4C8",
"h c #FFF5C9",
"j c #FFF7DA",
"k c #FFF8DB",
"l c #EDF1F9",
"z c #FCEEF0",
"x c #FFFDF7",
"c c #FFFEF9",
"v c gray100",
/* pixels */
"5+                      ",
"ts3o                    ",
"cvvl#                   ",
"vvvkcy@                 ",
"vxrwdav4O               ",
"vj0,1hcva2X             ",
"vjq,1hcvt6&$$$$$$$$$$$$$",
"vxrehav8=$$$$$$$$$$$$$$$",
"vvvjcu;$$$$$$$$$$$$$$$$$",
"cvvz:%$$$$$$$$$$$$$$$$$$",
"tf6&$$$$$$$$$$$$$$$$$$$$",
"9-$$$$$$$$$$$$$$$$$$$$$$"
};
