/* XPM */
static char *flag_BGD[] = {
/* columns rows colors chars-per-pixel */
"20 12 15 1",
"  c #006A4E",
". c #1B634C",
"X c #1C634C",
"o c #25604C",
"O c #A33F45",
"+ c #A53E45",
"@ c #A73E45",
"# c #A24045",
"$ c #E22F42",
"% c #E32E42",
"& c #E42E42",
"* c #E72E41",
"= c #E62E42",
"- c #E82D42",
"; c #F42A41",
/* pixels */
"                    ",
"                    ",
"      X+--@o        ",
"     X&;;;;&X       ",
"     +;;;;;;+       ",
"     -;;;;;;&       ",
"     -;;;;;;&       ",
"     +;;;;;;#       ",
"     o&;;;;$X       ",
"      X#--#X        ",
"                    ",
"                    "
};
