/* XPM */
static char *flag_IDN[] = {
/* columns rows colors chars-per-pixel */
"18 12 2 1",
"  c #CE1126",
". c gray100",
/* pixels */
"                  ",
"                  ",
"                  ",
"                  ",
"                  ",
"                  ",
"..................",
"..................",
"..................",
"..................",
"..................",
".................."
};
