/* XPM */
static char *flag_CAN[] = {
/* columns rows colors chars-per-pixel */
"24 12 30 1",
"  c red",
". c #FF0303",
"X c #FF0808",
"o c #FF1A1A",
"O c #FF1E1E",
"+ c #FF2323",
"@ c #FF3737",
"# c #FF3838",
"$ c #FF3E3E",
"% c #FF4545",
"& c #FF5E5E",
"* c #FF7A7A",
"= c #FF8181",
"- c #FF9999",
"; c #FFB4B4",
": c #FFB5B5",
"> c #FFBEBE",
", c #FFC7C7",
"< c #FFCBCB",
"1 c #FFCDCD",
"2 c #FFD1D1",
"3 c #FFD2D2",
"4 c #FFD3D3",
"5 c #FFD8D8",
"6 c #FFDEDE",
"7 c #FFDFDF",
"8 c #FFF2F2",
"9 c #FFF4F4",
"0 c #FFFBFB",
"q c gray100",
/* pixels */
"      qqqqqqqqqqqq      ",
"      qqqqq<<qqqqq      ",
"      qqqq;$$;qqqq      ",
"      qqq0&  &0qqq      ",
"      q>*%=  =%*>q      ",
"      q2        2q      ",
"      q;X      X;q      ",
"      qq1O    o<qq      ",
"      qqq-+#@+-qqq      ",
"      qqqqq77qqqqq      ",
"      qqqqq25qqqqq      ",
"      qqqqq89qqqqq      "
};
