/* XPM */
static char *flag_PLW[] = {
/* columns rows colors chars-per-pixel */
"19 12 28 1",
"  c #65B4B6",
". c #66B5B4",
"X c #72B8A6",
"o c #74B8A4",
"O c #4AADD6",
"+ c #4BAED4",
"@ c #4CAED3",
"# c #4FAED0",
"$ c #50AFCF",
"% c #5CB2C0",
"& c #5CB2C1",
"* c #99C378",
"= c #99C379",
"- c #A3C56D",
"; c #A3C66C",
": c #ACC762",
"> c #ADC861",
", c #D2D136",
"< c #D3D234",
"1 c #D6D331",
"2 c #D7D330",
"3 c #E7D71D",
"4 c #E6D81D",
"5 c #F2DA0F",
"6 c #F3DB0E",
"7 c #FFDE00",
"8 c #87BE8E",
"9 c #88BE8D",
/* pixels */
"OOOOOOOOOOOOOOOOOOO",
"OOOOOOOOOOOOOOOOOOO",
"OOOOOO%*>9@OOOOOOOO",
"OOOOOo6777<$OOOOOOO",
"OOOOO377777-OOOOOOO",
"OOOO.7777771OOOOOOO",
"OOOO 7777771OOOOOOO",
"OOOO+477777-OOOOOOO",
"OOOOOX6777<@OOOOOOO",
"OOOOOO%*:8OOOOOOOOO",
"OOOOOOOOOOOOOOOOOOO",
"OOOOOOOOOOOOOOOOOOO"
};
