/* XPM */
static char *flag_NOR[] = {
/* 8:11 */
"17 12 3 1",
"b c #002664",
"# c #eeeeee",
"+ c #ED2939",
/* pixels */
"++++#bb#+++++++++",
"++++#bb#+++++++++",
"++++#bb#+++++++++",
"++++#bb#+++++++++",
"#####bb##########",
"bbbbbbbbbbbbbbbbb",
"bbbbbbbbbbbbbbbbb",
"#####bb##########",
"++++#bb#+++++++++",
"++++#bb#+++++++++",
"++++#bb#+++++++++",
"++++#bb#+++++++++"
};
