/* XPM */
static char *flag_CYP[] = {
/* columns rows colors chars-per-pixel */
"18 12 42 1",
"  c #D57800",
". c #D7800F",
"X c #DC8E29",
"o c #DC8E2A",
"O c #E19E47",
"+ c #E19F49",
"@ c #E2A14D",
"# c #E4A759",
"$ c #E4A95D",
"% c #E8B471",
"& c #E8B675",
"* c #C3C8BA",
"= c #C4C8BA",
"- c #F0CDA1",
"; c #F1D1A9",
": c #F2D5AF",
"> c #F3D8B5",
", c #F4DCBC",
"< c #CED1C6",
"1 c #CFD2C7",
"2 c #DADDD4",
"3 c #E3E5DF",
"4 c #F7E5CD",
"5 c #F7E7D1",
"6 c #F6E8D5",
"7 c #F8E8D4",
"8 c #F9EBDA",
"9 c #E5E7E0",
"0 c #EBECE8",
"q c #ECEDE8",
"w c #FAEFE0",
"e c #F0F1EE",
"r c #FBF1E5",
"t c #FCF5ED",
"y c #FCF6EE",
"u c #F2F3F0",
"i c #F8F9F7",
"p c #F9F9F8",
"a c #F9FAF9",
"s c gray99",
"d c #FFFEFE",
"f c gray100",
/* pixels */
"ffffffffffffffffff",
"ffffffffffffffffff",
"fffffffffffft;rfff",
"fffffff5,7>%&tffff",
"ffffft-$   +ffffff",
"ffff8X    X#wfffff",
"fffff@  .O4fffffff",
"fffff36:fffa9fffff",
"fffff0=uffe*qfffff",
"ffffffi2<<2affffff",
"fffffffffaffffffff",
"ffffffffffffffffff"
};
