/* XPM */
static char *flag_BHR[] = {
/* columns rows colors chars-per-pixel */
"20 12 17 1",
"  c #CE1126",
". c #D01B2F",
"X c #D01C30",
"o c #D01D31",
"O c #D73E4F",
"+ c #D84151",
"@ c #D94858",
"# c #DF6371",
"$ c #E16E7B",
"% c #E2707D",
"& c #E9969F",
"* c #EBA0A8",
"= c #ECA4AC",
"- c #F4CCD0",
"; c #F5CFD4",
": c #FCF2F3",
"> c gray100",
/* pixels */
">>>>>;%o            ",
">>>>>>-#            ",
">>>>>&.             ",
">>>>>>:$            ",
">>>>>=O             ",
">>>>>:*@            ",
">>>>>:*+            ",
">>>>>=O             ",
">>>>>>:$            ",
">>>>>&.             ",
">>>>>>-#            ",
">>>>>;%o            "
};
