/* XPM */
static char *flag_SVK[] = {
/* columns rows colors chars-per-pixel */
"18 12 34 1",
"  c #184B9A",
". c #0B4EA2",
"X c #0C4EA1",
"o c #254995",
"O c #334C93",
"+ c #2C66AE",
"@ c #4D77B3",
"# c #5679B2",
"$ c #737AAB",
"% c #B05875",
"& c #E21E2C",
"* c #EC1D26",
"= c #EE1C25",
"- c #EE1D26",
"; c #EE2E37",
": c #EF2F37",
"> c #F03039",
", c #F0383F",
"< c #DD6D7A",
"1 c #ED5B63",
"2 c #EB5F68",
"3 c #F4696F",
"4 c #F46C72",
"5 c #86628D",
"6 c #8B6992",
"7 c #BF6A81",
"8 c #F68489",
"9 c #F6888C",
"0 c #F79195",
"q c #F79A9E",
"w c #FABBBE",
"e c #FABDC0",
"r c #FFFEFE",
"t c gray100",
/* pixels */
"tttttttttttttttttt",
"tttttttttttttttttt",
"tttttttttttttttttt",
"tttt==8=4ttttttttt",
"...@=0e32.........",
"...#>qw91.........",
"...+;&%=<.........",
"....6 Xo$.........",
"====;5O7==========",
"======,===========",
"==================",
"=================="
};
