/* XPM */
static char *flag_TCD[] = {
/* columns rows colors chars-per-pixel */
"18 12 3 1",
"  c #002664",
". c #C60C30",
"X c #FECB00",
/* pixels */
"      XXXXXX......",
"      XXXXXX......",
"      XXXXXX......",
"      XXXXXX......",
"      XXXXXX......",
"      XXXXXX......",
"      XXXXXX......",
"      XXXXXX......",
"      XXXXXX......",
"      XXXXXX......",
"      XXXXXX......",
"      XXXXXX......"
};
