/* XPM */
static char *flag_HUN[] = {
/* columns rows colors chars-per-pixel */
"24 12 3 1",
"  c #436F4D",
". c #CD2A3E",
"X c gray100",
/* pixels */
"........................",
"........................",
"........................",
"........................",
"XXXXXXXXXXXXXXXXXXXXXXXX",
"XXXXXXXXXXXXXXXXXXXXXXXX",
"XXXXXXXXXXXXXXXXXXXXXXXX",
"XXXXXXXXXXXXXXXXXXXXXXXX",
"                        ",
"                        ",
"                        ",
"                        "
};
