/* XPM */
static char *flag_BIH[] = {
/* columns rows colors chars-per-pixel */
"24 12 17 1",
"  c #314378",
". c #36477B",
"X c #39497A",
"o c #5C5F5F",
"O c #4B5569",
"+ c #002395",
"@ c #0B2C9A",
"# c #0F309B",
"$ c #304CA9",
"% c #324EAA",
"& c #4962B4",
"* c #536BB7",
"= c #576EB9",
"- c #ECBF0B",
"; c #FECB00",
": c #97A5D4",
"> c #CFD6EB",
/* pixels */
"+++$=$ ;;;;;;;;;;;o+++++",
"++++#>*.-;;;;;;;;;o+++++",
"+++++@&: -;;;;;;;;o+++++",
"++++++$=$ -;;;;;;;o+++++",
"+++++++#>* -;;;;;;o+++++",
"++++++++@&:$-;;;;;o+++++",
"+++++++++$=% -;;;;o+++++",
"++++++++++#>* -;;;o+++++",
"+++++++++++@&:X-;;o+++++",
"++++++++++++$=$ -;o+++++",
"+++++++++++++#>*X-o+++++",
"++++++++++++++@&:XO+++++"
};
