/* XPM */
static char *flag_QAT[] = {
/* columns rows colors chars-per-pixel */
"31 12 8 1",
"  c #8D1B3D",
". c #922545",
"X c #972F4E",
"o c #AF6078",
"O c #CD9BAA",
"+ c #E6CDD4",
"@ c #F2E6EA",
"# c gray100",
/* pixels */
"#########@OX                   ",
"#########+o.                   ",
"#########+o.                   ",
"#########@OX                   ",
"#########@OX                   ",
"#########+o.                   ",
"#########+o.                   ",
"#########@OX                   ",
"#########@OX                   ",
"#########+o.                   ",
"#########+o.                   ",
"#########@OX                   "
};
