/* XPM */
static char *flag_SLV[] = {
/* columns rows colors chars-per-pixel */
"21 12 18 1",
"  c #0F47AF",
". c #A4BF7F",
"X c #ADBF9E",
"o c #ABBEA1",
"O c #B1BFBA",
"+ c #B1BFBE",
"@ c #B2BDBD",
"# c #FEEBAF",
"$ c #E3E4CE",
"% c #E7E8CF",
"& c #F8F6EB",
"* c #FFFAEA",
"= c #FFFBEE",
"- c #FFFCF0",
"; c #FFFCF1",
": c #FFFDF2",
"> c #FFFDF4",
", c gray100",
/* pixels */
"                     ",
"                     ",
"                     ",
"                     ",
",,,,,,,,,*&-,,,,,,,,,",
",,,,,,,,-@#@=,,,,,,,,",
",,,,,,,,-X.o>,,,,,,,,",
",,,,,,,,,$O%,,,,,,,,,",
"                     ",
"                     ",
"                     ",
"                     "
};
