/* XPM */
static char *flag_ZWE[] = {
/* columns rows colors chars-per-pixel */
"24 12 43 1",
"  c #1C0000",
". c #1E0000",
"X c #0B550B",
"o c DarkGreen",
"O c #4B632D",
"+ c #6B6666",
"@ c #488200",
"# c #498300",
"$ c #842D2D",
"% c #885D02",
"& c #8A6B01",
"* c #B44D0B",
"= c #AB6700",
"- c #A96F1F",
"; c #A77A00",
": c #D20000",
"> c #D40000",
", c #CE453A",
"< c #E65A00",
"1 c #DE4E4C",
"2 c #E45C5C",
"3 c #948C66",
"4 c #ECC200",
"5 c #FFD200",
"6 c #9FA39F",
"7 c #A2A6A2",
"8 c #ABA6A2",
"9 c #D7AF98",
"0 c #D3B594",
"q c #F0A9A9",
"w c #F3B6B6",
"e c #F3B8B8",
"r c #D6C7C7",
"t c #D7D7D7",
"y c #F2D4D2",
"u c #F8D9D9",
"i c #F8DADA",
"p c #FCEFEF",
"a c #FDEFEF",
"s c #F6F6F6",
"d c #FDF4F4",
"f c #FEFBFB",
"g c gray100",
/* pixels */
"7Xoooooooooooooooooooooo",
"gtO@@@##################",
"ggs345555555555555555555",
"gguw8*<<<<<<<<<<<<<<<<<<",
"au-1ur$:>>>>>>>>>>>>>>>>",
"f2=;,ds+................",
"ga%&ygs+ ...............",
"ge90qt$:>:>>>>>>>>>>>>>>",
"gggg8*<<<<<<<<<<<<<<<<<<",
"ggs345555555555555555555",
"gtO@##############@@####",
"6Xoooooooooooooooooooooo"
};
