/* XPM */
static char *flag_LBR[] = {
/* columns rows colors chars-per-pixel */
"23 12 23 1",
"  c #002868",
". c #012969",
"X c #0F3571",
"o c #143973",
"O c #5E194D",
"+ c #642F5F",
"@ c #6A4572",
"# c #56709B",
"$ c #5B759E",
"% c #7B6187",
"& c #767298",
"* c #7B88AA",
"= c #BF0A30",
"- c #CB3756",
"; c #D6637B",
": c #AF7995",
"> c #8295B5",
", c #B7C2D4",
"< c #E291A2",
"1 c #EEBEC8",
"2 c #C2CBDB",
"3 c #F9EAED",
"4 c #F9FBFC",
/* pixels */
"     O=================",
"  $  *33333333333333333",
" #42X+-----------------",
" o,> &11111111111111111",
"     @;;;;;;;;;;;;;;;;;",
"%%%%%:<<<<<<<<<<<<<<<<<",
"<<<<<<<<<<<<<<<<<<<<<<<",
";;;;;;;;;;;;;;;;;;;;;;;",
"11111111111111111111111",
"-----------------------",
"33333333333333333333333",
"======================="
};
