/* XPM */
static char *flag_ESP[] = {
/* columns rows colors chars-per-pixel */
"18 12 28 1",
"  c #9F542F",
". c #B4491B",
"X c #B85C14",
"o c #C60B1E",
"O c #C6610E",
"+ c #CF7F14",
"@ c #CE7E3C",
"# c #CF8016",
"$ c #DAA83F",
"% c #E2A515",
"& c #EABD15",
"* c #EBBD15",
"= c #EFBD1E",
"- c #F7B502",
"; c #F8B502",
": c #F9B903",
"> c #F8BA05",
", c #E8BE2C",
"< c #F0BE20",
"1 c #D59A5A",
"2 c #D9A445",
"3 c #DAAE7E",
"4 c #FAC206",
"5 c #FDC301",
"6 c #FFC200",
"7 c #FFC300",
"8 c #FFC400",
"9 c #B38786",
/* pixels */
"oooooooooooooooooo",
"oooooooooooooooooo",
"oooooooooooooooooo",
"888887788888888888",
"8888>+#>8888888888",
"8887%O3,7888888888",
"888;@ 91-888888888",
"888:$X.2>888888888",
"8884&=<&4888888888",
"oooooooooooooooooo",
"oooooooooooooooooo",
"oooooooooooooooooo"
};
