/* XPM */
static char *flag_KWT[] = {
/* columns rows colors chars-per-pixel */
"24 12 12 1",
"  c black",
". c #000804",
"X c #110103",
"o c #002412",
"O c #004925",
"+ c #006E37",
"@ c #007A3D",
"# c #45060D",
"$ c #890B19",
"% c #BD1023",
"& c #CE1126",
"* c gray100",
/* pixels */
"o+@@@@@@@@@@@@@@@@@@@@@@",
" .O@@@@@@@@@@@@@@@@@@@@@",
"   o+@@@@@@@@@@@@@@@@@@@",
"    .O@@@@@@@@@@@@@@@@@@",
"      ******************",
"      ******************",
"      ******************",
"      ******************",
"    X$&&&&&&&&&&&&&&&&&&",
"   #%&&&&&&&&&&&&&&&&&&&",
" X$&&&&&&&&&&&&&&&&&&&&&",
"#%&&&&&&&&&&&&&&&&&&&&&&"
};
