/* XPM */
static char *flag_LCA[] = {
/* columns rows colors chars-per-pixel */
"24 12 40 1",
"  c black",
". c #3E350A",
"X c #272727",
"o c #2A2A2A",
"O c #43390A",
"+ c #665409",
"@ c #675509",
"# c gray34",
"$ c #585858",
"% c #66CCFF",
"& c #6BCEFF",
"* c #6DCEFF",
"= c #6ECFFF",
"- c #8F8C7C",
"; c #928F7B",
": c #CFAD19",
"> c #D3B019",
", c #E2BC14",
"< c #E5BE14",
"1 c #EEC618",
"2 c #F5CB15",
"3 c #F7CD16",
"4 c #F0C91B",
"5 c #F1CB1E",
"6 c #FCD116",
"7 c #D3C561",
"8 c #878B8D",
"9 c #898C8E",
"0 c #A6B6BE",
"q c #A7B7BF",
"w c #80D5FF",
"e c #82D5FF",
"r c #84D6FF",
"t c #A7DEF4",
"y c #A0DFFE",
"u c #B0D6E9",
"i c #B3D9EB",
"p c #B0D8EC",
"a c #A7E0F7",
"s c #A1E0FF",
/* pixels */
"%%%%%%%%%%%%%%%%%%%%%%%%",
"%%%%%%%%%%%ww%%%%%%%%%%%",
"%%%%%%%%%%%pp%%%%%%%%%%%",
"%%%%%%%%%%&89*%%%%%%%%%%",
"%%%%%%%%%%soXy%%%%%%%%%%",
"%%%%%%%%%%q  q%%%%%%%%%%",
"%%%%%%%%%w#++$r%%%%%%%%%",
"%%%%%%%%%i.23Ou%%%%%%%%%",
"%%%%%%%%*;,66<;=%%%%%%%%",
"%%%%%%%%t:6666>t%%%%%%%%",
"%%%%%%%%71445417%%%%%%%%",
"%%%%%%%%%%%%%%%%%%%%%%%%"
};
